<svg width="17" height="17" viewBox="0 0 17 17" fill="none" xmlns="http://www.w3.org/2000/svg">
<g clip-path="url(#clip0_62_4416)">
<path d="M17.0003 9.42756C16.9028 9.73559 16.7634 10.0269 16.4526 10.1565C16.217 10.2555 15.9564 10.2973 15.7041 10.3516C15.4881 10.3976 15.2665 10.4185 15.0504 10.4631C14.9933 10.4757 14.9222 10.5287 14.8999 10.5816C14.7591 10.8994 14.6253 11.22 14.4999 11.5447C14.479 11.5977 14.4901 11.6855 14.5222 11.7329C14.7104 12.0116 14.9111 12.2834 15.1062 12.5594C15.4658 13.0681 15.4254 13.5866 14.9905 14.0285C14.6727 14.3518 14.3521 14.6724 14.0274 14.9902C13.5897 15.4194 13.0713 15.4599 12.5723 15.1072C12.3005 14.9163 12.0287 14.7267 11.7639 14.5274C11.6747 14.4591 11.6064 14.4647 11.5102 14.5065C11.2175 14.6361 10.922 14.7588 10.6224 14.8731C10.522 14.9121 10.476 14.9651 10.4593 15.071C10.3994 15.4473 10.3436 15.825 10.26 16.1972C10.1569 16.6571 9.76799 16.9777 9.29689 16.9902C8.76585 17.0042 8.23482 17.0056 7.70379 16.9902C7.19088 16.9763 6.79922 16.6111 6.70863 16.0871C6.65009 15.7498 6.59294 15.4125 6.54137 15.0724C6.52604 14.9679 6.48284 14.9121 6.38109 14.8731C6.087 14.7616 5.7957 14.6417 5.50858 14.5149C5.42077 14.4759 5.36223 14.4814 5.28557 14.5372C5.00542 14.7435 4.72109 14.9442 4.43397 15.1435C3.9573 15.4752 3.44856 15.4431 3.03043 15.0431C2.67919 14.7072 2.33354 14.3616 1.99763 14.0103C1.60459 13.5992 1.57114 13.0876 1.89728 12.6193C2.08962 12.342 2.28615 12.0688 2.48964 11.7984C2.55515 11.712 2.56072 11.6451 2.51473 11.5447C2.38093 11.2548 2.25409 10.9607 2.14119 10.6611C2.09938 10.5496 2.03666 10.5105 1.93073 10.4924C1.59762 10.4395 1.2659 10.3809 0.934176 10.3238C0.352967 10.2248 0.00591483 9.82061 0.00312726 9.23383C0.000339691 8.76412 -0.00105409 8.29302 0.00312726 7.82332C0.00730862 7.24908 0.36133 6.83652 0.925813 6.74035C1.26311 6.6832 1.60319 6.63302 1.9391 6.56612C1.99903 6.55497 2.06872 6.49086 2.09381 6.43371C2.229 6.12569 2.34608 5.8093 2.48267 5.50266C2.52309 5.41067 2.50776 5.35353 2.4534 5.27966C2.25827 5.01205 2.06593 4.74026 1.87498 4.46987C1.50423 3.94581 1.54605 3.42871 1.99624 2.97573C2.30427 2.66631 2.61369 2.35828 2.9245 2.05026C3.38724 1.5917 3.90433 1.54989 4.43118 1.92761C4.696 2.11716 4.95803 2.31368 5.22843 2.49488C5.2786 2.52833 5.37338 2.53669 5.43053 2.51439C5.73855 2.39452 6.03822 2.25236 6.34764 2.13528C6.45496 2.09486 6.4898 2.03493 6.50514 1.93457C6.5581 1.59588 6.61385 1.25859 6.67518 0.921292C6.75741 0.466918 7.01247 0.163073 7.46406 0.0334508C7.48915 0.0264819 7.51284 0.0111503 7.53654 0C8.15816 0 8.7784 0 9.39724 0C9.42233 0.0111503 9.44463 0.0264819 9.47111 0.0334508C9.91573 0.158892 10.1736 0.455768 10.2572 0.903173C10.3213 1.23908 10.3757 1.57776 10.4259 1.91645C10.4412 2.01541 10.4802 2.06559 10.5778 2.10322C10.9025 2.22727 11.2203 2.36944 11.5451 2.49348C11.6036 2.51578 11.697 2.51021 11.7486 2.47676C12.0287 2.28999 12.3005 2.08928 12.5751 1.89415C13.0838 1.53595 13.6009 1.57637 14.0427 2.01402C14.3619 2.32902 14.6783 2.6454 14.9933 2.96458C15.4365 3.41199 15.4755 3.92769 15.109 4.44618C14.9166 4.71657 14.7187 4.98278 14.5347 5.25875C14.4999 5.31032 14.4915 5.40371 14.5138 5.46224C14.6337 5.77585 14.7731 6.08387 14.8929 6.39747C14.9278 6.49086 14.9807 6.5257 15.0699 6.53964C15.4086 6.594 15.7501 6.63442 16.0818 6.71526C16.2798 6.76404 16.4749 6.85742 16.6449 6.97032C16.8512 7.10691 16.9279 7.34246 17.0003 7.57104V9.43035V9.42756ZM3.73708 2.62032C3.69387 2.65516 3.64788 2.68443 3.61024 2.72206C3.29943 3.03009 2.99419 3.3423 2.68059 3.64614C2.58721 3.73674 2.58024 3.80922 2.65829 3.91514C2.91614 4.26777 3.16005 4.63015 3.42208 4.97999C3.59491 5.21136 3.5977 5.42461 3.47365 5.68664C3.27295 6.10896 3.09315 6.54382 2.94401 6.98705C2.84645 7.27695 2.68477 7.42748 2.3865 7.4693C1.96558 7.52783 1.54744 7.60728 1.12652 7.67418C1.00805 7.6937 0.959264 7.74527 0.960658 7.8721C0.967627 8.2986 0.96902 8.7237 0.960658 9.1502C0.956476 9.30909 1.00805 9.37321 1.16833 9.3969C1.60041 9.45962 2.0283 9.54743 2.46037 9.61294C2.7224 9.65336 2.87851 9.79274 2.9468 10.0436C3.07503 10.5217 3.26737 10.9733 3.51686 11.3984C3.65345 11.6297 3.63951 11.8444 3.48062 12.0604C3.22277 12.4131 2.97607 12.774 2.71683 13.1253C2.63459 13.2368 2.64017 13.3134 2.73913 13.4082C3.04855 13.7093 3.35379 14.0145 3.65484 14.3239C3.74544 14.4173 3.81792 14.4257 3.92385 14.3476C4.27647 14.0898 4.63886 13.8445 4.9887 13.5838C5.22007 13.411 5.4361 13.4082 5.69674 13.5323C6.1093 13.7274 6.53301 13.9072 6.96509 14.0521C7.25778 14.1511 7.39995 14.3198 7.44176 14.6152C7.5003 15.0362 7.57974 15.4543 7.64525 15.8752C7.66337 15.9951 7.71912 16.0425 7.84317 16.0397C8.27524 16.0341 8.70592 16.0313 9.138 16.0397C9.28574 16.0425 9.34288 15.9881 9.36379 15.8473C9.43069 15.4111 9.51153 14.9762 9.57983 14.5386C9.62025 14.2849 9.75684 14.133 10.0035 14.0675C10.4816 13.9406 10.936 13.7553 11.3625 13.5044C11.6008 13.3636 11.8169 13.3817 12.0385 13.5462C12.3897 13.8068 12.7507 14.0521 13.1033 14.31C13.2078 14.3867 13.2803 14.388 13.3737 14.2919C13.6776 13.9783 13.987 13.6702 14.3006 13.365C14.3954 13.273 14.3954 13.1978 14.3187 13.0932C14.0608 12.7406 13.8155 12.3782 13.5563 12.027C13.3932 11.8054 13.3904 11.5991 13.5089 11.3482C13.7152 10.9106 13.9033 10.4618 14.0664 10.006C14.1598 9.74535 14.3089 9.60039 14.5793 9.55858C15.0058 9.49307 15.4295 9.41641 15.856 9.3523C15.9954 9.33139 16.0554 9.27425 16.0526 9.12651C16.0456 8.70558 16.0428 8.28605 16.0526 7.86513C16.0567 7.69788 15.9885 7.64631 15.8365 7.62401C15.41 7.55989 14.9863 7.48045 14.5612 7.41354C14.302 7.37312 14.164 7.22817 14.0734 6.98286C13.9033 6.52292 13.7166 6.06854 13.5089 5.62532C13.3946 5.38141 13.3932 5.17791 13.5521 4.96188C13.8114 4.60925 14.0567 4.24826 14.3145 3.89563C14.3954 3.78691 14.3981 3.70886 14.2964 3.6113C13.987 3.31163 13.6803 3.00639 13.3807 2.69558C13.2817 2.59383 13.2078 2.59383 13.0977 2.67607C12.7423 2.93949 12.3799 3.19316 12.0217 3.4538C11.828 3.59597 11.6287 3.62524 11.4182 3.50537C10.9499 3.23916 10.4565 3.03706 9.93524 2.89629C9.71642 2.83775 9.59237 2.69001 9.55474 2.46421C9.48087 2.01681 9.40003 1.5708 9.33034 1.12339C9.31083 0.993769 9.25926 0.944986 9.12685 0.94638C8.70035 0.953349 8.27524 0.954743 7.84875 0.94638C7.69682 0.943593 7.63131 0.990981 7.60901 1.1429C7.54629 1.56383 7.46406 1.98196 7.40273 2.40289C7.36092 2.68722 7.21318 2.84472 6.94278 2.94367C6.49259 3.10814 6.05076 3.2963 5.61869 3.50119C5.37199 3.61827 5.16292 3.62663 4.93992 3.46077C4.59286 3.20431 4.23884 2.95761 3.88761 2.70812C3.84301 2.67607 3.79562 2.64959 3.73568 2.61335L3.73708 2.62032Z" fill="black"/>
<path d="M8.49666 4.83114C10.5051 4.81721 12.147 6.45072 12.1707 8.48565C12.193 10.4871 10.5539 12.1374 8.51896 12.1611C6.50633 12.1848 4.84354 10.5289 4.83936 8.49959C4.83518 6.48139 6.4673 4.84508 8.49666 4.83114ZM8.50641 11.2049C10.0033 11.1993 11.2313 9.96585 11.2131 8.48565C11.195 6.98872 9.98243 5.7831 8.49944 5.78728C7.00531 5.79146 5.77459 7.02914 5.79411 8.50795C5.81362 10.0077 7.02342 11.2119 8.50641 11.2049Z" fill="black"/>
</g>
<defs>
<clipPath id="clip0_62_4416">
<rect width="17" height="17" fill="white"/>
</clipPath>
</defs>
</svg>
