<svg width="107" height="129" viewBox="0 0 107 129" fill="none" xmlns="http://www.w3.org/2000/svg">
<path d="M56.3363 0C58.7587 0.341858 61.1404 0.92775 63.445 1.74874C68.8447 3.70385 73.58 7.1486 77.1027 11.684C80.6253 16.2195 82.7911 21.66 83.3492 27.3756C83.8935 32.2674 83.2616 37.2185 81.5057 41.8166C79.7498 46.4148 76.9209 50.527 73.2546 53.8109C69.5882 57.0948 65.1904 59.4554 60.4273 60.6962C55.6643 61.9369 50.6737 62.022 45.8711 60.9442C41.0685 59.8665 36.5926 57.6571 32.8165 54.5C29.0404 51.343 26.073 47.3296 24.1615 42.7939C22.2499 38.2583 21.4495 33.3316 21.8268 28.4241C22.204 23.5165 23.7481 18.7701 26.3304 14.5799C28.63 10.7087 31.7721 7.40511 35.5231 4.9143C39.274 2.42348 43.5378 0.809429 47.998 0.191935C48.2823 0.149283 48.5593 0.0639782 48.8436 0H56.3363ZM75.7785 30.7877C75.7785 24.6491 73.3402 18.7618 68.9995 14.4211C64.6588 10.0804 58.7714 7.64184 52.6327 7.64184C46.494 7.64184 40.6066 10.0804 36.2659 14.4211C31.9252 18.7618 29.4869 24.6491 29.4869 30.7877C29.4869 36.9264 31.9252 42.8137 36.2659 47.1544C40.6066 51.4951 46.494 53.9337 52.6327 53.9337C58.7714 53.9337 64.6588 51.4951 68.9995 47.1544C73.3402 42.8137 75.7785 36.9264 75.7785 30.7877Z" fill="#C8C7CC"/>
<path d="M53.4702 127.937C42.6935 127.937 31.9164 128.008 21.1397 127.937C16.1767 127.948 11.365 126.229 7.53362 123.074C5.28333 121.267 3.4544 118.99 2.1739 116.403C0.893393 113.816 0.192323 110.982 0.119476 108.096C-0.351849 99.856 0.573544 91.5953 2.85639 83.6636C4.30878 77.8647 7.24919 72.5452 11.3869 68.2307C13.6201 66.0647 16.2645 64.3682 19.1642 63.2413C22.064 62.1143 25.1603 61.5798 28.2701 61.6693C29.7327 61.7898 31.1319 62.3194 32.3077 63.1976C34.0138 64.2355 35.6699 65.3303 37.3546 66.4179C42.472 69.8591 48.5439 71.6002 54.7072 71.394C59.8001 71.1017 64.7322 69.5058 69.0309 66.7592C70.5166 65.8421 72.0382 64.9606 73.4244 63.9156C74.8036 62.91 76.3872 62.2206 78.063 61.8962C79.7388 61.5719 81.4659 61.6206 83.1208 62.039C86.8065 62.6721 90.2927 64.159 93.3009 66.3809C96.3091 68.6028 98.7554 71.4979 100.444 74.8346C103.686 81.1382 105.685 88.0069 106.33 95.0659C106.797 99.1975 106.966 103.357 106.835 107.513C106.766 112.566 104.846 117.417 101.44 121.15C98.0339 124.882 93.3775 127.236 88.3525 127.766C86.7396 127.933 85.1188 128.011 83.4974 128H53.4134L53.4702 127.937ZM53.534 120.28C63.4862 120.28 73.5098 120.28 83.4904 120.28C86.0325 120.363 88.567 119.965 90.9614 119.108C93.4938 118.139 95.6529 116.39 97.1273 114.115C98.6017 111.839 99.3152 109.154 99.1648 106.447C99.215 102.454 98.9776 98.463 98.4541 94.5044C97.8386 89.0376 96.2649 83.722 93.8051 78.8013C92.6693 76.3507 90.9398 74.2221 88.7738 72.6084C86.6077 70.9947 84.0736 69.947 81.4004 69.56C80.7726 69.4255 80.1238 69.4191 79.4935 69.5413C78.8632 69.6634 78.2641 69.9116 77.732 70.2709C76.3102 71.2874 74.8318 72.2186 73.3389 73.1143C68.4803 76.3413 62.9056 78.3297 57.1014 78.906C51.2972 79.4822 45.4404 78.6286 40.0421 76.4198C36.2393 74.7306 32.6104 72.6735 29.2081 70.2779C28.3737 69.6513 27.3417 69.3459 26.3007 69.4178C23.2932 69.6515 20.4209 70.7639 18.0405 72.6166C15.1112 75.1155 12.8925 78.3423 11.6073 81.9717C8.55595 90.3138 7.30808 99.2081 7.94624 108.068C8.06733 110.562 8.94378 112.96 10.4597 114.945C11.9756 116.929 14.0592 118.406 16.4338 119.179C18.7802 119.915 21.2334 120.254 23.6918 120.181C33.6439 120.217 43.5962 120.181 53.5483 120.181" fill="#C8C7CC"/>
</svg>
