<svg width="80" height="68" viewBox="0 0 80 68" fill="none" xmlns="http://www.w3.org/2000/svg">
<rect x="0.5" y="0.5" width="79" height="79" rx="5.5" fill="white" stroke="#DCDCDC"/>
<path d="M37.6409 42.3496C37.5123 42.3496 37.4192 42.3496 37.3255 42.3496C35.5246 42.3496 33.7236 42.3506 31.9222 42.349C30.7787 42.348 30.0021 41.5701 30.0021 40.4193C30.0021 39.9949 29.986 39.5658 30.0432 39.1476C30.1582 38.3118 30.9104 37.658 31.7546 37.6522C33.6076 37.6397 35.4605 37.6465 37.3135 37.6454C37.4077 37.6454 37.5014 37.6454 37.6399 37.6454C37.6399 37.5182 37.6399 37.4103 37.6399 37.3018C37.6399 35.5322 37.6638 33.7625 37.631 31.9939C37.6092 30.814 38.5237 29.9401 39.6089 30.0032C40.0482 30.0288 40.4984 29.9844 40.9258 30.0668C41.7835 30.2321 42.3571 30.9835 42.3592 31.8657C42.3634 33.6786 42.3602 35.4915 42.3602 37.3044C42.3602 37.4072 42.3602 37.5094 42.3602 37.6465C42.4909 37.6465 42.6007 37.6465 42.7105 37.6465C44.4943 37.6465 46.2785 37.671 48.0618 37.6371C49.1251 37.6168 50.0417 38.4724 49.9985 39.5882C49.9819 40.0116 50.023 40.4449 49.948 40.8573C49.783 41.7703 49.046 42.348 48.1242 42.3485C46.3145 42.3501 44.5047 42.3485 42.6949 42.349C42.5934 42.349 42.4914 42.349 42.3743 42.349C42.3686 42.4502 42.3602 42.5253 42.3602 42.6009C42.3602 44.4227 42.3608 46.2439 42.3602 48.0657C42.3602 49.1826 41.5602 49.9887 40.4505 49.9908C40.0612 49.9913 39.6682 50.0184 39.2825 49.9772C38.3222 49.874 37.643 49.0913 37.6414 48.1132C37.6378 46.2831 37.6414 44.4529 37.6414 42.6228C37.6414 42.5451 37.6414 42.4679 37.6414 42.3501L37.6409 42.3496Z" fill="#219F0A"/>
</svg>
