<svg width="52" height="52" viewBox="0 0 52 52" fill="none" xmlns="http://www.w3.org/2000/svg">
<rect width="52" height="52" rx="26" fill="#FF7236"/>
<path d="M23.6409 28.3496C23.5123 28.3496 23.4192 28.3496 23.3255 28.3496C21.5246 28.3496 19.7236 28.3506 17.9222 28.349C16.7787 28.348 16.0021 27.5701 16.0021 26.4193C16.0021 25.9949 15.986 25.5658 16.0432 25.1476C16.1582 24.3118 16.9104 23.658 17.7546 23.6522C19.6076 23.6397 21.4605 23.6465 23.3135 23.6454C23.4077 23.6454 23.5014 23.6454 23.6399 23.6454C23.6399 23.5182 23.6399 23.4103 23.6399 23.3018C23.6399 21.5322 23.6638 19.7625 23.631 17.9939C23.6092 16.814 24.5237 15.9401 25.6089 16.0032C26.0482 16.0288 26.4984 15.9844 26.9258 16.0668C27.7835 16.2321 28.3571 16.9835 28.3592 17.8657C28.3634 19.6786 28.3602 21.4915 28.3602 23.3044C28.3602 23.4072 28.3602 23.5094 28.3602 23.6465C28.4909 23.6465 28.6007 23.6465 28.7105 23.6465C30.4943 23.6465 32.2785 23.671 34.0618 23.6371C35.1251 23.6168 36.0417 24.4724 35.9985 25.5882C35.9819 26.0116 36.023 26.4449 35.948 26.8573C35.783 27.7703 35.046 28.348 34.1242 28.3485C32.3145 28.3501 30.5047 28.3485 28.6949 28.349C28.5934 28.349 28.4914 28.349 28.3743 28.349C28.3686 28.4502 28.3602 28.5253 28.3602 28.6009C28.3602 30.4227 28.3608 32.2439 28.3602 34.0657C28.3602 35.1826 27.5602 35.9887 26.4505 35.9908C26.0612 35.9913 25.6682 36.0184 25.2825 35.9772C24.3222 35.874 23.643 35.0913 23.6414 34.1132C23.6378 32.2831 23.6414 30.4529 23.6414 28.6228C23.6414 28.5451 23.6414 28.4679 23.6414 28.3501L23.6409 28.3496Z" fill="white"/>
</svg>
