<svg width="50" height="50" viewBox="0 0 50 50" fill="none" xmlns="http://www.w3.org/2000/svg">
<path d="M50 25C50 11.1929 38.8071 0 25 0C11.1929 0 0 11.1929 0 25C0 38.8071 11.1929 50 25 50C38.8071 50 50 38.8071 50 25Z" fill="black"/>
<path d="M49.5 25C49.5 11.469 38.531 0.5 25 0.5C11.469 0.5 0.5 11.469 0.5 25C0.5 38.531 11.469 49.5 25 49.5C38.531 49.5 49.5 38.531 49.5 25Z" stroke="#F1F1F1"/>
<path d="M21.4239 17.8751C21.9239 18.0271 22.8509 18.2632 23.7429 18.6002C24.068 18.7266 24.4155 18.7847 24.764 18.7713C25.1126 18.7579 25.4546 18.6731 25.7689 18.5221C26.5687 18.1253 27.4434 17.9025 28.3355 17.868C29.2276 17.8335 30.1169 17.9883 30.9449 18.3221C31.8236 18.6891 32.5846 19.2903 33.1449 20.0601C33.5449 20.6071 33.5219 20.7761 32.9779 21.1781C32.0662 21.7924 31.41 22.7185 31.1325 23.7823C30.8551 24.8461 30.9754 25.9747 31.4709 26.9561C31.8766 27.8048 32.5665 28.4849 33.4209 28.8783C33.8149 29.0613 33.9699 29.1922 33.7989 29.7122C33.2094 31.3942 32.3335 32.9615 31.2099 34.3451C30.9303 34.7606 30.565 35.1118 30.1387 35.3748C29.7124 35.6378 29.2348 35.8067 28.7379 35.8702C27.9845 35.9299 27.2292 35.7796 26.5559 35.4361C26.0126 35.1658 25.4116 35.0324 24.8049 35.0472C24.1983 35.062 23.6044 35.2246 23.0749 35.5211C22.4214 35.9295 21.6429 36.0893 20.8813 35.9713C20.1198 35.8532 19.4261 35.4653 18.927 34.8783C17.1579 33.0253 15.9346 30.7199 15.3919 28.2161C14.8349 26.1711 14.8678 24.0103 15.4869 21.9832C15.9197 20.7617 16.7261 19.7074 17.7917 18.9701C18.8574 18.2327 20.1283 17.8494 21.4239 17.8751Z" fill="white"/>
<path d="M28.6831 12C28.7371 14.132 26.5151 16.4201 24.9751 16.3491C25.0107 15.3119 25.3967 14.3171 26.0701 13.5273C26.7434 12.7376 27.6645 12.1992 28.6831 12Z" fill="white"/>
</svg>
