<svg width="9" height="16" viewBox="0 0 9 16" fill="none" xmlns="http://www.w3.org/2000/svg">
<path d="M2.24431 7.92506L8.36643 14.0368C8.51048 14.1699 8.64594 14.3117 8.772 14.4615C8.93069 14.6407 9.01203 14.8742 8.99856 15.1119C8.98508 15.3496 8.8779 15.5726 8.69994 15.7332C8.52968 15.9001 8.30071 15.9956 8.06082 15.9999C7.82094 16.0041 7.58866 15.9169 7.41243 15.7561C6.86266 15.2538 6.34632 14.7172 5.81844 14.192C4.03996 12.4227 2.26278 10.6526 0.486873 8.88159C-0.156883 8.23305 -0.164632 7.77771 0.477836 7.1368C2.72583 4.8953 4.97555 2.65558 7.22697 0.41748C7.76515 -0.116613 8.34717 -0.135882 8.7566 0.346074C9.13255 0.787337 9.06813 1.26425 8.54411 1.78817C6.72786 3.60239 4.90859 5.41318 3.08633 7.22062C2.84171 7.46605 2.55203 7.67073 2.24431 7.92506Z" fill="black"/>
</svg>
