<svg width="42" height="42" viewBox="0 0 42 42" fill="none" xmlns="http://www.w3.org/2000/svg">
<g filter="url(#filter0_d_62_777)">
<path d="M21 33C29.2843 33 36 26.2843 36 18C36 9.71573 29.2843 3 21 3C12.7157 3 6 9.71573 6 18C6 26.2843 12.7157 33 21 33Z" fill="white"/>
</g>
<path d="M17.8799 17.8158L22.6349 22.622C22.7467 22.7266 22.852 22.8382 22.9499 22.956C23.0731 23.0969 23.1363 23.2805 23.1258 23.4675C23.1154 23.6544 23.0321 23.8297 22.8939 23.956C22.7617 24.0873 22.5838 24.1623 22.3975 24.1657C22.2112 24.1691 22.0308 24.1005 21.8939 23.974C21.4669 23.579 21.0659 23.1571 20.6559 22.7441C19.2745 21.3527 17.8942 19.9607 16.5149 18.568C16.0149 18.058 16.0089 17.7 16.5079 17.196C18.2539 15.4333 20.0012 13.672 21.7499 11.912C22.1679 11.492 22.6199 11.4769 22.9379 11.8559C23.2299 12.2029 23.1799 12.5779 22.7729 12.9899C21.3622 14.4166 19.9492 15.8406 18.5339 17.2619C18.3439 17.4549 18.1189 17.6158 17.8799 17.8158Z" fill="black"/>
<defs>
<filter id="filter0_d_62_777" x="0" y="0" width="42" height="42" filterUnits="userSpaceOnUse" color-interpolation-filters="sRGB">
<feFlood flood-opacity="0" result="BackgroundImageFix"/>
<feColorMatrix in="SourceAlpha" type="matrix" values="0 0 0 0 0 0 0 0 0 0 0 0 0 0 0 0 0 0 127 0" result="hardAlpha"/>
<feOffset dy="3"/>
<feGaussianBlur stdDeviation="3"/>
<feColorMatrix type="matrix" values="0 0 0 0 0 0 0 0 0 0 0 0 0 0 0 0 0 0 0.161 0"/>
<feBlend mode="normal" in2="BackgroundImageFix" result="effect1_dropShadow_62_777"/>
<feBlend mode="normal" in="SourceGraphic" in2="effect1_dropShadow_62_777" result="shape"/>
</filter>
</defs>
</svg>
