<svg width="50" height="50" viewBox="0 0 50 50" fill="none" xmlns="http://www.w3.org/2000/svg">
    <rect width="50" height="50" rx="5" fill="#FF7236"/>
    <path d="M13 23.9342C13.0539 23.8018 13.1504 23.691 13.2741 23.6194C13.3979 23.5477 13.542 23.5193 13.6837 23.5386C14.6109 23.5516 15.538 23.5386 16.4652 23.5386C17.0033 23.5386 17.1587 23.6951 17.1609 24.2375C17.1609 24.3179 17.1609 24.3972 17.1609 24.4896L20.2848 24.1636V23.9125C20.2848 21.2603 20.2848 18.6081 20.2848 15.9559C20.2826 15.3646 20.4446 15.207 21.0435 15.207H35.1739C35.7598 15.207 35.9087 15.357 35.9087 15.944C35.9087 19.2309 35.9087 22.5179 35.9087 25.8049V26.1309C36.0815 26.1581 36.2348 26.1722 36.3848 26.207C36.8002 26.302 37.1765 26.5223 37.4625 26.8383C37.7485 27.1542 37.9305 27.5505 37.9837 27.9733C38.037 28.3961 37.959 28.8251 37.7603 29.2021C37.5616 29.5791 37.2518 29.8859 36.8728 30.0809C35.8228 30.6331 34.7663 31.1679 33.7087 31.7114C31.9207 32.6201 30.138 33.5429 28.337 34.4288C27.5202 34.8318 26.6216 35.0414 25.7109 35.0414C24.8001 35.0414 23.9015 34.8318 23.0848 34.4288C21.8239 33.8665 20.5667 33.2958 19.313 32.7168C18.6356 32.427 17.892 32.3266 17.162 32.4266C17.162 32.5929 17.162 32.7527 17.162 32.9125C17.1675 32.9823 17.1582 33.0525 17.1348 33.1186C17.1114 33.1846 17.0743 33.245 17.026 33.2957C16.9777 33.3465 16.9193 33.3865 16.8545 33.4132C16.7897 33.4398 16.72 33.4526 16.65 33.4505C15.6087 33.4625 14.5674 33.457 13.5272 33.4505C13.4113 33.4444 13.2997 33.4047 13.2061 33.3361C13.1125 33.2676 13.0408 33.1732 13 33.0646V23.9342ZM29.162 29.3212C29.2239 29.2962 29.2772 29.2809 29.325 29.2559C31.1127 28.3436 32.9004 27.432 34.688 26.5212C34.7506 26.4952 34.8027 26.4489 34.8358 26.3897C34.8689 26.3306 34.8812 26.262 34.8707 26.1951C34.8663 22.9726 34.8663 19.7501 34.8707 16.5277V16.2755H30.7174C30.7174 16.7809 30.7174 17.2679 30.7174 17.7538C30.7174 18.1516 30.6989 18.5505 30.687 18.9494C30.6905 19.0366 30.663 19.1222 30.6092 19.1909C30.5554 19.2596 30.479 19.3069 30.3935 19.3244C30.215 19.3562 30.0311 19.337 29.863 19.269C29.3663 19.0516 28.8848 18.8016 28.4011 18.5429C28.3152 18.4861 28.2149 18.4553 28.112 18.4539C28.0091 18.4526 27.908 18.4808 27.8207 18.5353C27.337 18.8005 26.8359 19.0353 26.3402 19.2788C26.255 19.3414 26.1531 19.3771 26.0475 19.3815C25.9419 19.3859 25.8374 19.3587 25.7473 19.3034C25.6573 19.2481 25.5857 19.1672 25.5419 19.0711C25.498 18.9749 25.4838 18.8678 25.5011 18.7636C25.5011 18.1853 25.5011 17.6081 25.5011 17.0299V16.2722H21.35V24.3549C21.8935 24.5831 22.4185 24.7896 22.9261 25.0157C23.9406 25.4766 24.9493 25.9476 25.9522 26.4288C26.713 26.7911 27.4667 27.1715 28.213 27.5701C28.4452 27.7 28.6448 27.8808 28.7969 28.099C28.9491 28.3172 29.0497 28.5671 29.0913 28.8299C29.1261 28.9864 29.137 29.1494 29.1609 29.3244M17.1739 31.3538C17.3457 31.3538 17.5 31.3636 17.6522 31.3538C18.4271 31.3146 19.199 31.4771 19.8924 31.8255C21.0859 32.3784 22.2815 32.9241 23.4793 33.4625C24.1817 33.8109 24.9561 33.9893 25.74 33.9832C26.524 33.9772 27.2955 33.7869 27.9924 33.4277C30.783 32.0168 33.5696 30.5983 36.3522 29.1722C36.4805 29.1135 36.5953 29.0291 36.6896 28.9241C36.7838 28.8191 36.8554 28.6958 36.9 28.5619C36.9445 28.4281 36.9611 28.2865 36.9485 28.1459C36.936 28.0054 36.8947 27.869 36.8272 27.7451C36.7626 27.6222 36.6742 27.5135 36.567 27.4254C36.4599 27.3372 36.3362 27.2713 36.2033 27.2316C36.0703 27.192 35.9308 27.1792 35.7928 27.1942C35.6549 27.2092 35.5213 27.2516 35.4 27.319C34.775 27.632 34.1565 27.9549 33.5348 28.2733C31.7957 29.1657 30.0326 30.0255 28.3174 30.9625C27.9432 31.1912 27.5144 31.3154 27.0758 31.3221C26.6373 31.3288 26.205 31.2177 25.8239 31.0005C24.9217 30.5364 23.9902 30.1309 23.0717 29.6962C22.7457 29.544 22.4196 29.3962 22.1022 29.2386C21.9997 29.1953 21.9145 29.1192 21.8602 29.0221C21.8059 28.925 21.7855 28.8126 21.8022 28.7027C21.812 28.5874 21.8628 28.4794 21.9453 28.3982C22.0279 28.3171 22.1367 28.2682 22.2522 28.2603C22.3888 28.2598 22.5236 28.2914 22.6457 28.3527C23.95 28.9701 25.2543 29.5972 26.5587 30.2146C26.6834 30.2752 26.8188 30.3106 26.9572 30.3188C27.0956 30.3269 27.2342 30.3077 27.3651 30.2621C27.4961 30.2166 27.6167 30.1457 27.7202 30.0534C27.8237 29.9611 27.9079 29.8493 27.968 29.7244C28.0282 29.5995 28.0631 29.464 28.0708 29.3256C28.0784 29.1871 28.0587 29.0486 28.0127 28.9178C27.9667 28.787 27.8953 28.6666 27.8027 28.5635C27.71 28.4604 27.5979 28.3765 27.4728 28.3168C25.825 27.5277 24.1685 26.7559 22.5228 25.9625C21.3865 25.3592 20.0843 25.1436 18.8141 25.3483C18.2707 25.4472 17.7272 25.494 17.1696 25.5657L17.1739 31.3538ZM14.0565 32.3744H16.112V24.5972H14.0565V32.3744ZM29.6457 16.2744H26.5565V18.0016C26.8387 17.8708 27.1141 17.7257 27.3815 17.5668C27.5886 17.4138 27.8393 17.3312 28.0967 17.3312C28.3542 17.3312 28.6049 17.4138 28.812 17.5668C29.0674 17.7309 29.3554 17.8505 29.6446 18.0016L29.6457 16.2744Z" fill="white"/>
</svg>
