<svg width="20" height="20" viewBox="0 0 20 20" fill="none" xmlns="http://www.w3.org/2000/svg">
<g opacity="0.6" clip-path="url(#clip0_62_1312)">
<path d="M4.7669 1.90057C4.7669 1.40528 4.71508 1.01095 4.78599 0.641188C4.82963 0.409232 5.05873 0.212753 5.20328 0.00126404C5.36965 0.219575 5.62739 0.418783 5.68194 0.661654C5.76376 1.02596 5.70376 1.42301 5.70376 1.85281H14.2964C14.2964 1.44348 14.2419 1.01368 14.3182 0.607077C14.3605 0.383308 14.6196 0.200473 14.7819 -0.00146484C14.9319 0.20593 15.1719 0.396952 15.2128 0.624814C15.2851 1.01232 15.2319 1.42438 15.2319 1.8992C15.7679 1.8992 16.237 1.89511 16.7061 1.8992C18.5471 1.92103 19.9858 3.33323 19.9912 5.16568C20.0021 9.01341 20.0021 12.8611 19.9912 16.7102C19.9858 18.5522 18.5607 19.9863 16.7252 19.9917C12.2454 20.0026 7.76704 20.0013 3.28729 19.9917C1.44493 19.9876 0.0116839 18.5618 0.00622906 16.7252C-0.00468052 12.8775 -0.00468052 9.02978 0.00622906 5.18069C0.0130476 3.34551 1.44357 1.92513 3.2791 1.90193C3.74958 1.89647 4.21869 1.90193 4.76826 1.90193L4.7669 1.90057ZM0.918543 8.60135C0.918543 11.2511 0.910361 13.8285 0.921271 16.4046C0.928089 18.1333 1.87995 19.0748 3.62139 19.0775C7.87068 19.0857 12.1186 19.0857 16.3679 19.0775C18.1407 19.0748 19.0735 18.1292 19.0789 16.3446C19.0871 13.9704 19.0816 11.5963 19.0789 9.22217C19.0789 9.02569 19.0557 8.82784 19.0421 8.60135H0.918543ZM4.76826 2.86796C4.08505 2.86796 3.47002 2.79428 2.87954 2.88433C1.89631 3.03442 1.17628 3.65797 1.03037 4.624C0.884451 5.58456 0.999001 6.58333 0.999001 7.57665H19.0366C19.0366 6.63791 19.1048 5.73192 19.0189 4.84094C18.9221 3.84763 18.2907 3.16268 17.3361 2.93482C16.6788 2.7779 15.9697 2.84067 15.2319 2.8011C15.2319 3.32778 15.2796 3.73984 15.2128 4.13143C15.176 4.34565 14.9455 4.52712 14.8037 4.7236C14.6346 4.52712 14.3619 4.35111 14.3196 4.13143C14.2405 3.72483 14.2978 3.29366 14.2978 2.86659H5.7024C5.7024 3.3346 5.75422 3.76849 5.68058 4.17919C5.64376 4.38249 5.37784 4.54486 5.21556 4.72496C5.06691 4.53394 4.82554 4.35929 4.78735 4.14917C4.71781 3.75621 4.7669 3.34278 4.7669 2.86523L4.76826 2.86796Z" fill="black"/>
<path d="M10.9203 11.4217C10.923 11.9621 10.5139 12.3782 9.98751 12.3714C9.4884 12.3646 9.09701 11.973 9.08065 11.4654C9.06292 10.9265 9.45976 10.4885 9.97796 10.4735C10.4866 10.4598 10.9162 10.8923 10.9203 11.4217Z" fill="black"/>
<path d="M5.7007 11.4356C5.69661 11.9405 5.25341 12.3744 4.74339 12.3703C4.23745 12.3662 3.81198 11.9282 3.81743 11.4138C3.82289 10.9035 4.26473 10.4628 4.76384 10.4723C5.26568 10.4819 5.70616 10.9335 5.70207 11.4356H5.7007Z" fill="black"/>
<path d="M15.1822 12.3698C14.6763 12.3289 14.2631 11.8554 14.3013 11.3601C14.3408 10.8566 14.8195 10.4364 15.3118 10.4746C15.8095 10.5128 16.2159 10.9863 16.1832 11.4911C16.1505 12.0014 15.6841 12.4107 15.1822 12.3698Z" fill="black"/>
<path d="M4.74666 17.0735C4.22436 17.0708 3.80571 16.6382 3.81661 16.1102C3.82752 15.5658 4.23391 15.1865 4.78757 15.2042C5.28123 15.2206 5.69443 15.634 5.70125 16.1184C5.70806 16.6273 5.26077 17.0762 4.74802 17.0735H4.74666Z" fill="black"/>
<path d="M16.1847 16.1223C16.1901 16.649 15.7647 17.0788 15.2424 17.0733C14.731 17.0679 14.2878 16.6122 14.3001 16.1073C14.3137 15.6189 14.7242 15.2177 15.2233 15.2054C15.7701 15.1918 16.1779 15.582 16.1847 16.1223Z" fill="black"/>
<path d="M10.0123 17.0733C9.49004 17.0801 9.07002 16.6598 9.08229 16.125C9.09593 15.5655 9.3864 15.2422 9.9537 15.2081C10.5114 15.1753 10.9042 15.5464 10.9192 16.1018C10.9342 16.6407 10.5346 17.0678 10.0123 17.0746V17.0733Z" fill="black"/>
</g>
<defs>
<clipPath id="clip0_62_1312">
<rect width="20" height="20" fill="white"/>
</clipPath>
</defs>
</svg>
