<svg width="128" height="119" viewBox="0 0 128 119" fill="none" xmlns="http://www.w3.org/2000/svg">
<g clip-path="url(#clip0_63_5392)">
<path d="M31.3718 88.5122C25.9879 88.5122 20.8603 88.5184 15.7395 88.5122C5.48438 88.4933 0.0262324 83.4221 0.0127389 73.8271C-0.0075015 54.2029 -0.0075015 34.5851 0.0127389 14.9609C0.0262324 5.23379 5.5451 0.0304656 15.9149 0.017882C37.1808 -0.00728521 58.4466 -0.013577 79.7058 0.017882C89.1783 0.0304656 94.9265 5.3785 95.0614 14.2437C95.1289 18.7045 95.0749 23.1717 95.0749 28.0038C100.412 28.0038 105.411 27.9913 110.417 28.0038C121.118 28.0353 127.871 34.1195 127.925 44.1234C128.026 63.433 128.019 82.7426 127.925 102.046C127.878 111.974 121.05 118.121 110.323 118.134C89.9541 118.159 69.5856 118.153 49.217 118.134C37.9364 118.121 31.3853 111.937 31.3718 101.36C31.3718 97.2011 31.3718 93.0485 31.3718 88.5059V88.5122ZM47.166 79.2632C57.9069 79.2632 68.641 79.2758 79.3819 79.2569C83.5852 79.2506 84.9548 78.0803 84.9548 74.3178C84.9885 54.398 84.9885 34.4718 84.9548 14.5457C84.9548 10.7328 83.6189 9.54368 79.4494 9.53739C58.197 9.51851 36.9446 9.51851 15.6923 9.53739C11.3204 9.53739 10.1262 10.6762 10.1262 14.7848C10.1059 34.497 10.1059 54.2155 10.1262 73.9277C10.1262 78.1621 11.3473 79.2506 15.9621 79.2569C26.3657 79.2695 36.7692 79.2569 47.166 79.2569V79.2632ZM43.1922 88.5122C43.1922 93.3506 43.1247 97.7234 43.2124 102.084C43.2866 105.594 44.8316 106.966 48.6301 106.972C69.228 106.991 89.8192 106.991 110.417 106.972C114.533 106.972 116.037 105.531 116.051 101.681C116.071 93.9546 116.051 86.2345 116.051 78.5082C116.051 67.0256 116.017 55.5431 116.078 44.0605C116.091 41.5627 115.248 39.3102 112.549 39.1529C106.821 38.8132 101.053 39.046 95.0749 39.046C95.0749 40.5812 95.0749 41.72 95.0749 42.8588C95.0749 53.5045 95.1492 64.1566 95.048 74.8023C94.967 83.2019 89.266 88.4304 80.2927 88.4996C73.1277 88.5562 65.9626 88.5122 58.8042 88.5122C53.7846 88.5122 48.765 88.5122 43.1922 88.5122Z" fill="white"/>
</g>
<defs>
<clipPath id="clip0_63_5392">
<rect width="128" height="118.154" fill="white"/>
</clipPath>
</defs>
</svg>
