<svg width="27" height="27" viewBox="0 0 27 27" fill="none" xmlns="http://www.w3.org/2000/svg">
<path d="M13.27 26.54C20.5988 26.54 26.54 20.5988 26.54 13.27C26.54 5.94118 20.5988 0 13.27 0C5.94118 0 0 5.94118 0 13.27C0 20.5988 5.94118 26.54 13.27 26.54Z" fill="white"/>
<path d="M8.62133 10.7076H7.6084V9.69047C7.76493 9.67727 7.91845 9.66468 8.08458 9.65089C8.09117 9.52914 8.09717 9.42179 8.10317 9.31444C8.13315 8.79089 8.2561 8.66375 8.77305 8.65595C9.29001 8.64815 9.80757 8.65175 10.3245 8.64995C10.4229 8.64995 10.5212 8.64995 10.6196 8.64995C10.667 8.37888 10.7006 8.1264 10.7569 7.87871C10.9093 7.21242 11.6799 6.54374 12.4577 6.59351C12.9825 6.6271 13.5126 6.6229 14.038 6.59231C14.9778 6.53714 15.8438 7.41453 15.8414 8.38908C15.8414 8.45864 15.8414 8.52761 15.8414 8.64995C16.0561 8.64995 16.26 8.64995 16.4633 8.64995C16.8909 8.65115 17.3185 8.64815 17.7461 8.65595C18.251 8.66555 18.401 8.82087 18.4082 9.32284C18.4094 9.42959 18.4082 9.53574 18.4082 9.65388C18.5947 9.66588 18.7494 9.67547 18.9293 9.68687C18.9293 9.93815 18.9311 10.1738 18.9281 10.4101C18.9269 10.4965 18.9155 10.5835 18.9047 10.7136H17.8786C17.8786 10.8641 17.8786 10.9799 17.8786 11.0962C17.8768 13.5629 17.875 16.0289 17.8726 18.4956C17.872 19.2734 17.2207 19.9427 16.4393 19.9445C14.3211 19.9499 12.2029 19.9493 10.084 19.9445C9.28581 19.9427 8.63212 19.2752 8.63092 18.4806C8.62732 16.0139 8.62372 13.5479 8.62013 11.0812C8.62013 10.9733 8.62013 10.8659 8.62013 10.707L8.62133 10.7076ZM9.65404 10.7328C9.64625 10.8035 9.63785 10.8419 9.63785 10.8803C9.64685 13.3572 9.65404 15.8334 9.66904 18.3102C9.67203 18.8206 9.79978 18.9453 10.3143 18.9465C12.264 18.9525 14.2131 18.9531 16.1628 18.9477C16.7247 18.9459 16.8453 18.8152 16.8471 18.2557C16.8549 15.8388 16.8603 13.4219 16.8651 11.0051C16.8651 10.9187 16.8543 10.8323 16.8477 10.7334H9.65404V10.7328ZM11.7435 8.63256H14.7469C14.8074 7.97047 14.5154 7.64242 13.8731 7.63703C13.4569 7.63343 13.0401 7.63103 12.6239 7.63703C12.0007 7.64662 11.7075 7.97047 11.7441 8.63256H11.7435Z" fill="#ED1C24"/>
<path d="M11.6938 17.8966H10.7139V11.7656H11.6938V17.8966Z" fill="#ED1C24"/>
<path d="M12.749 11.7607H13.7542V17.8929H12.749V11.7607Z" fill="#ED1C24"/>
<path d="M15.8046 17.8995H14.833V11.7686H15.8046V17.8995Z" fill="#ED1C24"/>
</svg>
