<svg width="15" height="19" viewBox="0 0 15 19" fill="none" xmlns="http://www.w3.org/2000/svg">
<path d="M1.34197 5.85613H0V4.40949C0.207373 4.39073 0.410774 4.37281 0.63086 4.35319C0.6396 4.18004 0.647545 4.02736 0.65549 3.87468C0.695217 3.13003 0.858096 2.9492 1.54298 2.93811C2.22787 2.92702 2.91356 2.93214 3.59844 2.92958C3.72875 2.92958 3.85905 2.92958 3.98935 2.92958C4.05212 2.54404 4.09662 2.18493 4.1713 1.83265C4.37391 0.885001 5.39488 -0.0660657 6.42539 0.00473116C7.12061 0.0524977 7.82298 0.0465269 8.51899 0.00302522C9.76402 -0.0754484 10.9113 1.17245 10.9082 2.55854C10.9082 2.65748 10.9082 2.75557 10.9082 2.92958C11.1926 2.92958 11.4627 2.92958 11.7321 2.92958C12.2986 2.93129 12.8651 2.92702 13.4316 2.93811C14.1006 2.95176 14.2992 3.17268 14.3088 3.88662C14.3103 4.03845 14.3088 4.18942 14.3088 4.35746C14.5559 4.37452 14.7608 4.38817 14.9992 4.40437C14.9992 4.76177 15.0016 5.09699 14.9976 5.43306C14.996 5.55589 14.9809 5.67957 14.9666 5.86466H13.6072C13.6072 6.07876 13.6072 6.24338 13.6072 6.40886C13.6048 9.91714 13.6024 13.4246 13.5992 16.9329C13.5984 18.0392 12.7356 18.9911 11.7003 18.9936C8.89401 19.0013 6.08772 19.0005 3.28063 18.9936C2.22311 18.9911 1.35706 18.0417 1.35547 16.9115C1.35071 13.4033 1.34594 9.89582 1.34117 6.38754C1.34117 6.234 1.34117 6.08132 1.34117 5.85528L1.34197 5.85613ZM2.71015 5.89196C2.69983 5.99261 2.6887 6.0472 2.6887 6.10179C2.70062 9.62457 2.71015 13.1465 2.73002 16.6693C2.73399 17.3952 2.90323 17.5726 3.58494 17.5743C6.16796 17.5828 8.7502 17.5837 11.3332 17.576C12.0777 17.5734 12.2374 17.3875 12.2398 16.5917C12.2501 13.1542 12.2573 9.7167 12.2636 6.27921C12.2636 6.15638 12.2493 6.03355 12.2406 5.89281H2.71015V5.89196ZM5.47831 2.90484H9.45733C9.53758 1.96316 9.15064 1.49658 8.2997 1.48891C7.74829 1.48379 7.19609 1.48038 6.64469 1.48891C5.81916 1.50255 5.43064 1.96316 5.4791 2.90484H5.47831Z" fill="#ED1C24"/>
<path d="M5.41253 16.0818H4.11426V7.36182H5.41253V16.0818Z" fill="#ED1C24"/>
<path d="M6.81006 7.354H8.1417V16.0757H6.81006V7.354Z" fill="#ED1C24"/>
<path d="M10.8584 16.0852H9.57129V7.36523H10.8584V16.0852Z" fill="#ED1C24"/>
</svg>
