<svg width="12" height="7" viewBox="0 0 12 7" fill="none" xmlns="http://www.w3.org/2000/svg">
<path d="M5.94379 5.25442L10.5276 0.492775C10.6274 0.380734 10.7338 0.275378 10.8461 0.177332C10.9805 0.0539064 11.1557 -0.00935985 11.3339 0.00112246C11.5122 0.0116048 11.6794 0.0949702 11.7999 0.23338C11.9251 0.365805 11.9967 0.543895 11.9999 0.730473C12.0031 0.91705 11.9377 1.09771 11.8171 1.23478C11.4404 1.66237 11.0379 2.06397 10.644 2.47454C9.31706 3.85781 7.98943 5.24006 6.66119 6.62132C6.17479 7.12202 5.83328 7.12805 5.3526 6.62835C3.67148 4.87991 1.99169 3.13013 0.31311 1.37902C-0.08746 0.960438 -0.101911 0.507757 0.259555 0.189313C0.590502 -0.103095 0.948185 -0.0529862 1.34113 0.354582C2.70179 1.76722 4.05989 3.18221 5.41547 4.59952C5.59954 4.78978 5.75305 5.01509 5.94379 5.25442Z" fill="black"/>
</svg>
