<svg width="19" height="19" viewBox="0 0 19 19" fill="none" xmlns="http://www.w3.org/2000/svg">
<path d="M19 3.3912C18.8949 3.81957 18.6159 4.12696 18.3113 4.42398C17.8139 4.90832 17.3287 5.40486 16.8408 5.89868C16.7931 5.94653 16.7617 6.01062 16.7311 6.05531C15.417 4.73499 14.1365 3.44897 12.8488 2.15528C12.8461 2.16431 12.8461 2.14896 12.8533 2.14174C13.4136 1.58021 13.9514 0.992949 14.5413 0.46482C15.2705 -0.188345 16.2118 -0.144108 16.9122 0.53614C17.4815 1.08864 18.0327 1.65965 18.5939 2.22074C18.8069 2.43334 18.9183 2.69876 19.0005 2.98088V3.3912H19Z" fill="#00973C"/>
<path d="M5.88097 16.8462C4.61307 15.5746 3.33575 14.2936 2.07324 13.0274C5.3243 9.76203 8.57985 6.4926 11.8228 3.23535C13.0799 4.49835 14.36 5.78391 15.6238 7.05368C12.3862 10.3078 9.13203 13.5786 5.88142 16.8462H5.88097Z" fill="#00973C"/>
<path d="M0.976733 14.1045C2.25811 15.3905 3.52825 16.6652 4.80917 17.9503C4.39268 18.0532 3.9699 18.1584 3.54712 18.2613C2.58744 18.4956 1.62775 18.729 0.667622 18.961C0.584054 18.9813 0.496892 19.0034 0.412426 18.9994C0.152287 18.9872 -0.0467481 18.7412 0.0103116 18.4789C0.327959 17.0195 0.654143 15.5625 0.977182 14.104L0.976733 14.1045Z" fill="#00973C"/>
</svg>
