<svg width="50" height="50" viewBox="0 0 50 50" fill="none" xmlns="http://www.w3.org/2000/svg">
<path d="M50 25C50 11.1929 38.8071 0 25 0C11.1929 0 0 11.1929 0 25C0 38.8071 11.1929 50 25 50C38.8071 50 50 38.8071 50 25Z" fill="#395C94"/>
<path d="M22.766 36.456C22.766 33.828 22.7609 29.738 22.7709 27.111C22.7709 26.839 22.6649 26.787 22.4259 26.793C21.8539 26.806 21.2819 26.798 20.7099 26.793C20.2099 26.793 20.028 26.617 20.018 26.114C20.0026 25.2873 19.9966 24.4603 19.9999 23.633C19.9999 23.167 20.234 22.951 20.706 22.947C21.253 22.947 21.8061 22.924 22.3481 22.954C22.6951 22.973 22.768 22.854 22.769 22.523C22.739 21.4182 22.768 20.3126 22.8559 19.211C22.9364 18.3221 23.3169 17.4871 23.9347 16.843C24.5526 16.199 25.3713 15.7843 26.256 15.667C27.3912 15.5521 28.5325 15.5097 29.673 15.54C30.044 15.54 30.2259 15.789 30.2309 16.213C30.2399 16.882 30.2389 17.551 30.2309 18.22C30.2309 18.763 30.017 18.966 29.476 18.972C28.953 18.977 28.4289 18.963 27.9069 18.983C27.7445 18.9657 27.5805 18.982 27.4247 19.0309C27.2689 19.0798 27.1248 19.1602 27.0014 19.2671C26.878 19.374 26.7778 19.5052 26.7072 19.6524C26.6366 19.7997 26.5971 19.9598 26.591 20.123C26.505 20.941 26.556 21.773 26.529 22.598C26.52 22.867 26.5979 22.958 26.8759 22.953C27.7639 22.937 28.6519 22.946 29.5399 22.947C30.1889 22.947 30.397 23.186 30.319 23.823C30.2223 24.605 30.1284 25.3876 30.037 26.171C29.986 26.612 29.797 26.793 29.351 26.794C28.536 26.794 27.7199 26.806 26.9049 26.789C26.6229 26.783 26.5299 26.856 26.5309 27.153C26.5409 29.744 26.5399 33.863 26.5309 36.453" fill="white"/>
</svg>
