<svg width="52" height="52" viewBox="0 0 52 52" fill="none" xmlns="http://www.w3.org/2000/svg">
<rect width="52" height="52" rx="26" fill="#FF7236"/>
<g clip-path="url(#clip0_62_3489)">
<path d="M26.0515 16.0042C28.9186 16.0042 31.7857 16.0084 34.6528 16C35.1869 15.9986 35.6708 16.0363 35.9176 16.6201C36.1728 17.2249 35.7949 17.5685 35.4282 17.9358C33.3489 20.0126 31.2628 22.0838 29.2101 24.1858C28.9716 24.4302 28.7987 24.8548 28.7945 25.197C28.7638 28.3701 28.7722 31.5433 28.7792 34.7165C28.7792 35.2305 28.729 35.6872 28.1739 35.9176C27.6189 36.1481 27.2591 35.859 26.8994 35.4944C25.8591 34.44 24.7797 33.4232 23.7785 32.3324C23.4856 32.0126 23.2625 31.5 23.2499 31.0699C23.1942 29.1257 23.2485 27.1788 23.2053 25.2333C23.1969 24.8688 23.0212 24.4218 22.7688 24.162C20.7329 22.0755 18.662 20.0224 16.5995 17.9623C16.2174 17.581 15.8089 17.2249 16.0961 16.5894C16.3764 15.9735 16.9091 16 17.4502 16.0014C20.3173 16.0056 23.1844 16.0028 26.0515 16.0028V16.0042Z" fill="white"/>
</g>
<defs>
<clipPath id="clip0_62_3489">
<rect width="20" height="20" fill="white" transform="translate(16 16)"/>
</clipPath>
</defs>
</svg>
