<svg width="151" height="151" viewBox="0 0 151 151" fill="none" xmlns="http://www.w3.org/2000/svg">
<path d="M75.5 151C117.197 151 151 117.197 151 75.5C151 33.8025 117.197 0 75.5 0C33.8025 0 0 33.8025 0 75.5C0 117.197 33.8025 151 75.5 151Z" fill="#F5F5F5"/>
<path d="M75.5 136C108.913 136 136 108.913 136 75.5C136 42.0868 108.913 15 75.5 15C42.0868 15 15 42.0868 15 75.5C15 108.913 42.0868 136 75.5 136Z" fill="#FF7236"/>
<path d="M63.1329 68.177H57.8389V58.849C57.8385 56.5994 58.2813 54.3719 59.1419 52.2935C60.0026 50.2152 61.2643 48.3267 62.855 46.7361C64.4456 45.1454 66.3341 43.8837 68.4124 43.023C70.4908 42.1624 72.7183 41.7196 74.9679 41.72C77.2169 41.7204 79.4438 42.1637 81.5215 43.0248C83.5991 43.8858 85.4869 45.1476 87.0769 46.7382C88.6669 48.3288 89.9281 50.2169 90.7884 52.2949C91.6487 54.3729 92.0913 56.6 92.0909 58.849V68.18H86.7969V58.849C86.7973 57.2952 86.4916 55.7565 85.8974 54.3208C85.3031 52.8852 84.4319 51.5806 83.3335 50.4816C82.2351 49.3826 80.9309 48.5108 79.4956 47.9158C78.0602 47.3208 76.5217 47.0144 74.9679 47.014C73.4136 47.0136 71.8744 47.3194 70.4383 47.9141C69.0023 48.5087 67.6974 49.3804 66.5984 50.4795C65.4993 51.5785 64.6276 52.8834 64.033 54.3194C63.4383 55.7555 63.1325 57.2947 63.1329 58.849V68.177Z" fill="white"/>
<path d="M64.0357 64.949H86.8607C90.4324 65.0149 93.8318 66.4965 96.3115 69.0679C98.7912 71.6394 100.148 75.0902 100.085 78.662V95.567C100.148 99.1387 98.7912 102.59 96.3115 105.161C93.8318 107.732 90.4324 109.214 86.8607 109.28H64.0357C60.464 109.214 57.0647 107.732 54.5849 105.161C52.1052 102.59 50.748 99.1387 50.8117 95.567V78.662C50.748 75.0902 52.1052 71.6394 54.5849 69.0679C57.0647 66.4965 60.464 65.0149 64.0357 64.949Z" fill="#D9D4D2"/>
<path d="M64.1779 64.949H84.4649C88.3508 64.949 92.0776 66.4927 94.8254 69.2404C97.5732 71.9882 99.1169 75.715 99.1169 79.601V94.628C99.1169 98.5139 97.5732 102.241 94.8254 104.989C92.0776 107.736 88.3508 109.28 84.4649 109.28H64.1779C60.2919 109.28 56.5651 107.736 53.8174 104.989C51.0696 102.241 49.5259 98.5139 49.5259 94.628V79.601C49.5259 75.715 51.0696 71.9882 53.8174 69.2404C56.5651 66.4927 60.2919 64.949 64.1779 64.949Z" fill="url(#paint0_linear_62_411)"/>
<path d="M82.3658 84.2647C82.3656 82.9333 82.0009 81.6274 81.3113 80.4885C80.6217 79.3496 79.6335 78.4212 78.4538 77.804C77.2742 77.1868 75.9481 76.9042 74.6192 76.987C73.2904 77.0698 72.0096 77.5148 70.9157 78.2737C69.8218 79.0326 68.9565 80.0765 68.4136 81.2921C67.8707 82.5078 67.671 83.8489 67.836 85.17C68.0011 86.4912 68.5247 87.7419 69.35 88.7866C70.1752 89.8314 71.2708 90.6303 72.5178 91.0967L72.2798 96.2047C72.2729 96.3509 72.2955 96.4969 72.3461 96.6342C72.3967 96.7715 72.4743 96.8972 72.5743 97.004C72.6744 97.1107 72.7948 97.1963 72.9285 97.2557C73.0622 97.3151 73.2065 97.3471 73.3528 97.3497H77.2178C77.3657 97.3496 77.512 97.3195 77.6479 97.2612C77.7839 97.203 77.9066 97.1178 78.0087 97.0107C78.1107 96.9037 78.19 96.7771 78.2418 96.6386C78.2936 96.5 78.3167 96.3524 78.3098 96.2047L78.0468 90.9147C79.3312 90.3408 80.4223 89.4077 81.1885 88.2278C81.9546 87.0479 82.3631 85.6715 82.3648 84.2647H82.3658Z" fill="#FF7236"/>
<defs>
<linearGradient id="paint0_linear_62_411" x1="49.5259" y1="107.595" x2="85.705" y2="70.2061" gradientUnits="userSpaceOnUse">
<stop stop-color="white"/>
<stop offset="1" stop-color="white"/>
</linearGradient>
</defs>
</svg>
