<svg width="50" height="50" viewBox="0 0 50 50" fill="none" xmlns="http://www.w3.org/2000/svg">
<path d="M50 25C50 11.1929 38.8071 0 25 0C11.1929 0 0 11.1929 0 25C0 38.8071 11.1929 50 25 50C38.8071 50 50 38.8071 50 25Z" fill="white"/>
<path d="M49.5 25C49.5 11.469 38.531 0.5 25 0.5C11.469 0.5 0.5 11.469 0.5 25C0.5 38.531 11.469 49.5 25 49.5C38.531 49.5 49.5 38.531 49.5 25Z" stroke="#EBEBEB"/>
<path d="M17.043 20.2369C17.6775 18.9697 18.5886 17.8613 19.709 16.9935C20.8294 16.1256 22.1304 15.5206 23.516 15.223C24.9016 14.9254 26.3363 14.943 27.7142 15.2743C29.0922 15.6055 30.3781 16.2421 31.477 17.137C31.793 17.399 31.844 17.537 31.517 17.837C30.783 18.516 30.0939 19.244 29.3849 19.95C29.2619 20.073 29.185 20.226 28.955 20.025C28.2646 19.4602 27.4477 19.071 26.5741 18.891C25.7005 18.7109 24.7963 18.7453 23.9389 18.991C23.0814 19.2368 22.2963 19.6866 21.6508 20.3021C21.0052 20.9175 20.5184 21.6803 20.232 22.525L20.1779 22.6649C19.9389 22.7429 19.808 22.5498 19.663 22.4368C18.906 21.8368 18.138 21.258 17.383 20.659C17.2264 20.5594 17.107 20.411 17.043 20.2369Z" fill="#E92F2E"/>
<path d="M20.1767 26.3211C20.457 27.154 20.9241 27.9118 21.5424 28.5363C22.1607 29.1608 22.9137 29.6355 23.7438 29.9241C24.5738 30.2127 25.459 30.3076 26.3313 30.2013C27.2037 30.0951 28.0401 29.7905 28.7767 29.3111C28.8938 29.3147 29.0048 29.3643 29.0857 29.4492C29.8857 30.0682 30.6927 30.6751 31.4857 31.3051C31.6137 31.4051 31.7637 31.4961 31.7527 31.6951C30.4486 32.902 28.7974 33.6672 27.0337 33.8821C25.0357 34.1957 22.9898 33.8654 21.192 32.939C19.3942 32.0126 17.9379 30.5381 17.0337 28.7291C17.1337 28.4561 17.3917 28.3471 17.5927 28.1821C18.2707 27.6241 18.9777 27.1021 19.6657 26.5571C19.8077 26.4421 19.9407 26.2571 20.1767 26.3211Z" fill="#00973C"/>
<path d="M31.7487 31.696C30.8927 31.0207 30.037 30.3453 29.1817 29.6699C29.0407 29.5579 28.9107 29.432 28.7757 29.312C29.6077 28.7141 30.223 27.862 30.5287 26.884C30.6427 26.504 30.6127 26.3631 30.1607 26.3721C28.7767 26.3991 27.3927 26.3721 26.0087 26.3901C25.6367 26.3951 25.4817 26.329 25.4977 25.906C25.5337 24.973 25.5207 24.039 25.4977 23.106C25.4917 22.806 25.5727 22.7061 25.8857 22.7061C28.6037 22.7171 31.3227 22.7131 34.0407 22.7061C34.2577 22.7061 34.4167 22.7111 34.4527 22.9971C34.8717 26.3111 34.2707 29.302 31.7487 31.696Z" fill="#106CB5"/>
<path d="M20.1759 26.322L17.0289 28.73C16.35 27.417 15.9968 25.9601 15.999 24.4819C16.0013 23.0038 16.359 21.548 17.0419 20.2371L20.1769 22.6599C19.7991 23.8513 19.7988 25.1304 20.1759 26.322Z" fill="#FFA900"/>
</svg>
