<svg width="128" height="128" viewBox="0 0 128 128" fill="none" xmlns="http://www.w3.org/2000/svg">
<mask id="mask0_202_35" style="mask-type:luminance" maskUnits="userSpaceOnUse" x="0" y="0" width="128" height="128">
<path d="M128 0H0V127.957H128V0Z" fill="white"/>
</mask>
<g mask="url(#mask0_202_35)">
<path d="M20.3865 17.0657C19.1492 16.8737 18.2105 16.7599 17.2861 16.5822C16.1239 16.3683 15.0904 15.7107 14.4043 14.7486C13.7182 13.7864 13.4332 12.5951 13.6097 11.4266C13.7727 10.2779 14.3737 9.23671 15.287 8.52099C16.2002 7.80526 17.3548 7.47046 18.5092 7.58662C23.1931 8.1318 27.8722 8.74336 32.5465 9.42128C33.7403 9.62107 34.8102 10.2757 35.5316 11.2476C36.2529 12.2196 36.5696 13.4333 36.415 14.6337C35.884 19.0995 35.3033 23.5511 34.6728 27.9884C34.6396 28.6082 34.4805 29.2148 34.2053 29.7711C33.9301 30.3275 33.5445 30.822 33.072 31.2245C32.5995 31.627 32.05 31.9292 31.457 32.1124C30.864 32.2957 30.2399 32.3563 29.6226 32.2906C29.0054 32.2249 28.4081 32.0342 27.8669 31.7301C27.3258 31.426 26.8523 31.015 26.4751 30.522C26.098 30.029 25.8252 29.4643 25.6734 28.8625C25.5215 28.2606 25.4938 27.6342 25.5919 27.0213C25.6854 26.2907 25.671 25.5503 25.5492 24.8239C23.9919 26.5804 22.3492 28.2657 20.8985 30.1075C13.3387 39.6525 9.14768 51.4296 8.97814 63.6045C8.80859 75.7795 12.6701 87.6687 19.9612 97.4205C27.2522 107.172 37.5636 114.239 49.2892 117.521C61.0149 120.802 73.4965 120.113 84.7901 115.562C96.0837 111.011 105.555 102.853 111.73 92.3587C117.904 81.8641 120.434 69.6223 118.927 57.5399C117.419 45.4574 111.958 34.2127 103.395 25.5571C94.8309 16.9015 83.6451 11.3208 71.5794 9.68439C69.1759 9.35728 66.7368 9.25773 64.3119 9.15817C63.6798 9.19477 63.0469 9.10272 62.4515 8.88759C61.856 8.67246 61.3104 8.33872 60.8477 7.90659C60.385 7.47446 60.0148 6.95292 59.7595 6.37355C59.5042 5.79418 59.3692 5.16903 59.3625 4.53595C59.371 3.90213 59.5099 3.27684 59.7707 2.69908C60.0314 2.12131 60.4084 1.60346 60.8781 1.1778C61.3478 0.752135 61.9002 0.427793 62.5007 0.224994C63.1013 0.0221944 63.7372 -0.0547153 64.3688 -0.000940393C76.2841 0.033364 87.9533 3.39334 98.0624 9.70067C108.172 16.008 116.319 25.0122 121.588 35.6995C126.857 46.3867 129.037 58.3326 127.884 70.1921C126.731 82.0516 122.29 93.3537 115.061 102.826C107.833 112.298 98.1031 119.564 86.9683 123.806C75.8335 128.048 63.7356 129.097 52.0368 126.835C40.338 124.574 29.5029 119.091 20.7514 111.005C11.9999 102.918 5.67959 92.5496 2.5021 81.0657C-0.745353 70.0548 -0.890211 58.3611 2.08349 47.2731C5.05719 36.185 11.034 26.1331 19.3554 18.2248C19.647 17.9262 19.9314 17.6133 20.4008 17.1084" fill="#C8C7CC"/>
<path d="M105.143 64.0984C105.136 72.2485 102.713 80.2134 98.1792 86.9861C93.6456 93.7588 87.2054 99.0351 79.6732 102.148C72.141 105.261 63.8549 106.07 55.8628 104.474C47.8706 102.877 40.5313 98.9467 34.7728 93.1793C29.0143 87.4119 25.0953 80.0665 23.5114 72.0718C21.9274 64.0772 22.7496 55.7924 25.874 48.265C28.9984 40.7376 34.2847 34.3058 41.0644 29.7827C47.8442 25.2596 55.8129 22.8484 63.9629 22.854C74.8905 22.871 85.3648 27.2238 93.0858 34.9568C100.807 42.6898 105.143 53.1708 105.143 64.0984ZM64.0269 32.0416C57.6696 32.018 51.449 33.8859 46.1564 37.4079C40.8638 40.9298 36.7385 45.9465 34.3052 51.8198C31.872 57.693 31.2408 64.1574 32.492 70.3904C33.7432 76.6234 36.8202 82.3433 41.3315 86.8225C45.8429 91.3017 51.5847 94.3377 57.8265 95.5443C64.0683 96.7508 70.5279 96.0734 76.3836 93.5982C82.2393 91.123 87.2264 86.9619 90.7104 81.6443C94.1944 76.3266 96.0178 70.0928 95.9487 63.7358C95.8444 55.323 92.4406 47.2876 86.4702 41.3597C80.4998 35.4319 72.4402 32.0857 64.0269 32.0416Z" fill="#C8C7CC"/>
<path d="M68.6131 55.8282C68.2927 57.9404 68.3481 60.0926 68.7766 62.1855C69.4878 63.9775 71.5642 65.2291 73.0434 66.7224C74.2522 67.9384 75.4896 69.1331 76.6843 70.3704C77.14 70.7863 77.5068 71.2902 77.7626 71.8516C78.0185 72.413 78.1581 73.0204 78.173 73.6372C78.1879 74.2539 78.0779 74.8674 77.8495 75.4405C77.621 76.0136 77.2791 76.5345 76.844 76.972C76.409 77.4095 75.8898 77.7544 75.318 77.9859C74.7461 78.2175 74.1333 78.3309 73.5164 78.3194C72.8996 78.3079 72.2915 78.1716 71.7287 77.9188C71.1659 77.6661 70.66 77.302 70.2416 76.8486C67.0843 73.734 63.8843 70.6548 60.8763 67.3979C60.0257 66.4004 59.5261 65.1513 59.4541 63.8424C59.2834 59.4122 59.3687 54.9749 59.3972 50.5447C59.3972 49.332 59.8789 48.1689 60.7364 47.3114C61.5939 46.4539 62.7569 45.9722 63.9696 45.9722C65.1823 45.9722 66.3452 46.4539 67.2027 47.3114C68.0602 48.1689 68.5421 49.332 68.5421 50.5447C68.5421 52.3082 68.5421 54.1002 68.5421 55.8353H68.6345" fill="#C8C7CC"/>
</g>
</svg>
