<svg width="128" height="128" viewBox="0 0 128 128" fill="none" xmlns="http://www.w3.org/2000/svg">
<path d="M103.031 127.977H78.8078C77.9447 127.558 77.2317 126.883 76.7659 126.045C76.3001 125.206 76.1042 124.244 76.2048 123.29C76.2617 113.732 76.2048 104.166 76.2048 94.6082C76.2756 93.7316 76.1551 92.8502 75.8518 92.0247C75.5484 91.1993 75.0695 90.4496 74.448 89.8274C73.8265 89.2052 73.0773 88.7255 72.2522 88.4212C71.4271 88.117 70.5457 87.9956 69.6691 88.0653C66.0136 88.0653 62.3511 88.1791 58.6956 88.0298C57.7828 87.9657 56.8669 88.098 56.0096 88.4178C55.1522 88.7377 54.3735 89.2377 53.7258 89.884C53.0781 90.5304 52.5765 91.3081 52.2548 92.1648C51.9332 93.0214 51.7989 93.9371 51.8612 94.85C51.9892 104.323 51.8612 113.803 51.9252 123.297C52.0242 124.252 51.8277 125.214 51.3622 126.054C50.8967 126.893 50.1846 127.569 49.3223 127.991H25.1209C23.1619 127.575 21.3092 126.761 19.6773 125.6C18.0455 124.439 16.6692 122.956 15.6337 121.242C14.1842 118.601 13.4996 115.609 13.6567 112.601C13.6567 101.326 13.6567 90.0519 13.6567 78.7773C13.6567 76.0535 13.6567 76.1104 10.9826 75.8686C8.73499 75.7731 6.56805 75.0038 4.76331 73.6607C2.95857 72.3176 1.59946 70.4628 0.862542 68.3372C-0.0622644 66.058 -0.248832 63.546 0.329112 61.1552C0.907055 58.7643 2.22039 56.6149 4.08418 55.0097C21.0102 38.1074 37.9268 21.1956 54.8339 4.27424C55.3317 3.77642 55.8438 3.27859 56.3843 2.85189C57.7449 1.67675 59.3576 0.830196 61.0975 0.377631C62.8375 -0.0749343 64.6582 -0.121388 66.419 0.241859C69.1194 0.83471 71.5622 2.26897 73.3957 4.33825C89.9899 20.9704 106.612 37.5882 123.264 54.1919C125.537 56.2263 127.181 58.8694 128 61.8086V66.3033C127.457 69.0253 125.989 71.4755 123.845 73.2384C121.701 75.0013 119.013 75.9683 116.237 75.9753C114.523 76.0749 114.488 76.1673 114.488 78.1088C114.488 89.5778 114.488 101.044 114.488 112.509C114.653 115.512 113.991 118.503 112.575 121.157C111.543 122.896 110.162 124.401 108.518 125.578C106.873 126.755 105.002 127.576 103.023 127.991" fill="#FF7236"/>
</svg>
