<svg width="358" height="235" viewBox="0 0 358 235" fill="none" xmlns="http://www.w3.org/2000/svg">
<mask id="mask0_62_143" style="mask-type:luminance" maskUnits="userSpaceOnUse" x="0" y="0" width="358" height="235">
<path d="M358 0H0V234.772H358V0Z" fill="white"/>
</mask>
<g mask="url(#mask0_62_143)">
<mask id="mask1_62_143" style="mask-type:luminance" maskUnits="userSpaceOnUse" x="0" y="0" width="358" height="235">
<path d="M358 0H0V234.772H358V0Z" fill="white"/>
</mask>
<g mask="url(#mask1_62_143)">
<path d="M15.8239 216.271C17.3345 216.795 18.9538 216.925 20.5287 216.649C22.1035 216.372 23.5819 215.699 24.8239 214.692C27.9809 212.036 28.9809 207.686 29.7509 203.644L32.1379 191.711L27.1719 195.137C23.5919 197.601 19.9349 200.137 17.4329 203.721C14.9309 207.305 13.8529 212.151 15.8549 216.039" fill="#415E87"/>
<path d="M16.5911 231.552C15.9751 226.971 15.3211 222.352 15.7441 217.732C16.042 213.614 17.498 209.664 19.9441 206.338C21.2921 204.603 22.9336 203.118 24.7941 201.95C25.2941 201.642 25.7181 202.412 25.2561 202.72C22.0268 204.748 19.5312 207.756 18.1341 211.304C16.7195 215.287 16.1938 219.531 16.5941 223.738C16.7481 226.279 17.0941 228.781 17.4411 231.321C17.4636 231.433 17.4448 231.549 17.3881 231.648C17.3315 231.747 17.2409 231.823 17.1331 231.86C17.0775 231.878 17.0188 231.884 16.9608 231.877C16.9028 231.871 16.8467 231.853 16.796 231.824C16.7454 231.795 16.7013 231.756 16.6665 231.709C16.6318 231.662 16.6071 231.609 16.5941 231.552" fill="#577DAA"/>
<path d="M21.0952 224.239C21.7422 225.221 22.6309 226.02 23.6759 226.559C24.7209 227.099 25.887 227.36 27.0622 227.319C30.1032 227.165 32.6052 225.048 34.8762 223.046L41.6132 217.118L37.1862 216.887C33.9862 216.733 30.7192 216.579 27.6782 217.58C24.6372 218.581 21.8272 220.929 21.2492 224.086" fill="#415E87"/>
<path d="M14.8198 234.17C17.8198 228.819 21.3258 222.891 27.5998 221.005C29.3409 220.461 31.1745 220.278 32.9888 220.466C33.5658 220.505 33.4118 221.39 32.8348 221.351C29.7965 221.088 26.7614 221.891 24.2508 223.622C21.8871 225.329 19.8852 227.488 18.3608 229.974C17.3988 231.474 16.5128 233.015 15.6278 234.555C15.3198 235.017 14.5118 234.671 14.8198 234.17Z" fill="#577DAA"/>
<path d="M225.424 121.458H93.0029V234.247H225.424V121.458Z" fill="white"/>
<path d="M225.809 234.632H92.6182V121.073H225.809V234.632ZM93.3882 233.862H225.039V121.843H93.3882V233.862Z" fill="#192437"/>
<path d="M175.766 143.4H142.661V234.247H175.766V143.4Z" fill="#FF6A50"/>
<path d="M175.766 143.4H142.661V234.247H175.766V143.4Z" fill="#FF7236"/>
<g opacity="0.2">
<mask id="mask2_62_143" style="mask-type:luminance" maskUnits="userSpaceOnUse" x="93" y="129" width="133" height="28">
<path d="M225.425 129.734H93.3882V156.488H225.425V129.734Z" fill="white"/>
</mask>
<g mask="url(#mask2_62_143)">
<path d="M93.3882 129.734V148.015L225.425 156.484L225.04 133.884L93.3882 129.734Z" fill="black"/>
</g>
</g>
<path d="M233.123 111.064H85.3042V143.399H233.123V111.064Z" fill="white"/>
<path d="M233.508 143.784H84.9189V110.679H233.508V143.784ZM85.6889 143.014H232.738V111.449H85.6889V143.014Z" fill="#192437"/>
<path d="M175.766 107.985H142.661V143.015H175.766V107.985Z" fill="#FF7236"/>
<path d="M155.672 77.4201C164.41 90.3931 156.172 111.22 156.172 111.22C156.172 111.22 133.772 111.066 125.03 98.0931C116.288 85.1201 124.53 64.2931 124.53 64.2931C124.53 64.2931 146.93 64.4851 155.672 77.4201Z" fill="#FF7236"/>
<path d="M159.676 77.4201C150.938 90.3931 159.176 111.22 159.176 111.22C159.176 111.22 181.576 111.066 190.318 98.0931C199.06 85.1201 190.818 64.2931 190.818 64.2931C190.818 64.2931 168.418 64.4851 159.676 77.4201Z" fill="#FF7236"/>
<path d="M136.117 80.269C136.802 80.269 137.472 80.4723 138.042 80.853C138.612 81.2337 139.056 81.7749 139.318 82.4081C139.58 83.0412 139.649 83.7379 139.515 84.41C139.382 85.0822 139.052 85.6996 138.567 86.1842C138.082 86.6688 137.465 86.9988 136.793 87.1325C136.121 87.2662 135.424 87.1975 134.791 86.9353C134.158 86.673 133.617 86.2289 133.236 85.6591C132.855 85.0893 132.652 84.4194 132.652 83.734C132.652 83.279 132.741 82.8284 132.915 82.4079C133.089 81.9874 133.345 81.6054 133.666 81.2836C133.988 80.9618 134.37 80.7066 134.791 80.5325C135.211 80.3584 135.662 80.2689 136.117 80.269Z" fill="#192437"/>
<path d="M156.905 115.299C157.59 115.299 158.26 115.502 158.83 115.883C159.4 116.263 159.844 116.804 160.107 117.437C160.369 118.071 160.438 118.767 160.304 119.439C160.171 120.112 159.841 120.729 159.356 121.214C158.872 121.699 158.254 122.029 157.582 122.162C156.91 122.296 156.213 122.228 155.58 121.965C154.947 121.703 154.406 121.259 154.025 120.689C153.644 120.119 153.441 119.449 153.441 118.764C153.441 118.309 153.53 117.859 153.704 117.438C153.878 117.018 154.133 116.636 154.455 116.314C154.777 115.992 155.159 115.737 155.579 115.563C155.999 115.389 156.45 115.299 156.905 115.299Z" fill="#192437"/>
<path d="M156.905 191.133C157.59 191.133 158.26 191.336 158.83 191.717C159.4 192.097 159.845 192.638 160.107 193.272C160.369 193.905 160.438 194.602 160.304 195.274C160.171 195.946 159.841 196.564 159.356 197.048C158.871 197.533 158.254 197.863 157.582 197.997C156.909 198.13 156.213 198.061 155.579 197.799C154.946 197.537 154.405 197.092 154.024 196.522C153.644 195.952 153.441 195.282 153.441 194.597C153.441 193.678 153.806 192.797 154.455 192.148C155.105 191.498 155.986 191.133 156.905 191.133Z" fill="#192437"/>
<path d="M145.356 94.1271C145.813 94.1271 146.259 94.2626 146.639 94.5164C147.019 94.7702 147.315 95.131 147.49 95.5531C147.665 95.9752 147.711 96.4396 147.622 96.8877C147.532 97.3358 147.312 97.7474 146.989 98.0705C146.666 98.3936 146.255 98.6136 145.807 98.7027C145.358 98.7918 144.894 98.7461 144.472 98.5712C144.05 98.3964 143.689 98.1003 143.435 97.7204C143.181 97.3406 143.046 96.8939 143.046 96.4371C143.046 95.8244 143.289 95.2369 143.722 94.8037C144.156 94.3705 144.743 94.1271 145.356 94.1271Z" fill="#192437"/>
<path d="M180.001 74.494C180.458 74.494 180.904 74.6295 181.284 74.8833C181.664 75.1372 181.96 75.4979 182.135 75.92C182.31 76.3421 182.356 76.8066 182.267 77.2547C182.177 77.7028 181.957 78.1144 181.634 78.4374C181.311 78.7605 180.9 78.9805 180.452 79.0696C180.003 79.1588 179.539 79.113 179.117 78.9382C178.695 78.7633 178.334 78.4673 178.08 78.0874C177.826 77.7075 177.691 77.2609 177.691 76.804C177.691 76.1914 177.934 75.6038 178.367 75.1706C178.801 74.7374 179.388 74.494 180.001 74.494Z" fill="#192437"/>
<path d="M164.988 128.772C165.445 128.772 165.892 128.908 166.272 129.161C166.651 129.415 166.948 129.776 167.122 130.198C167.297 130.62 167.343 131.085 167.254 131.533C167.165 131.981 166.945 132.392 166.622 132.715C166.299 133.039 165.887 133.259 165.439 133.348C164.991 133.437 164.526 133.391 164.104 133.216C163.682 133.041 163.321 132.745 163.068 132.365C162.814 131.986 162.678 131.539 162.678 131.082C162.678 130.779 162.738 130.478 162.854 130.198C162.97 129.918 163.14 129.663 163.354 129.448C163.569 129.234 163.824 129.064 164.104 128.948C164.384 128.832 164.685 128.772 164.988 128.772Z" fill="#192437"/>
<path d="M151.13 158.798C151.587 158.798 152.033 158.934 152.413 159.187C152.793 159.441 153.089 159.802 153.264 160.224C153.439 160.646 153.485 161.111 153.395 161.559C153.306 162.007 153.086 162.418 152.763 162.741C152.44 163.065 152.029 163.285 151.58 163.374C151.132 163.463 150.668 163.417 150.246 163.242C149.824 163.067 149.463 162.771 149.209 162.391C148.955 162.012 148.82 161.565 148.82 161.108C148.82 160.805 148.879 160.504 148.995 160.224C149.111 159.944 149.282 159.689 149.496 159.474C149.711 159.26 149.965 159.09 150.246 158.974C150.526 158.858 150.826 158.798 151.13 158.798Z" fill="#192437"/>
<path d="M163.064 169.191C163.521 169.191 163.967 169.326 164.347 169.58C164.727 169.834 165.023 170.195 165.198 170.617C165.373 171.039 165.419 171.504 165.33 171.952C165.24 172.4 165.02 172.811 164.697 173.134C164.374 173.457 163.963 173.678 163.515 173.767C163.066 173.856 162.602 173.81 162.18 173.635C161.758 173.46 161.397 173.164 161.143 172.784C160.889 172.405 160.754 171.958 160.754 171.501C160.754 170.888 160.997 170.301 161.43 169.868C161.864 169.434 162.451 169.191 163.064 169.191Z" fill="#192437"/>
<path d="M160.369 212.69C160.826 212.69 161.273 212.826 161.652 213.079C162.032 213.333 162.328 213.694 162.503 214.116C162.678 214.538 162.724 215.003 162.635 215.451C162.546 215.899 162.326 216.31 162.003 216.633C161.679 216.957 161.268 217.177 160.82 217.266C160.372 217.355 159.907 217.309 159.485 217.134C159.063 216.959 158.702 216.663 158.448 216.283C158.195 215.904 158.059 215.457 158.059 215C158.059 214.387 158.302 213.8 158.736 213.367C159.169 212.933 159.756 212.69 160.369 212.69Z" fill="#192437"/>
<path d="M302.799 229.972H298.599L296.559 213.689H302.795L302.799 229.972Z" fill="#FFB7B7"/>
<path d="M303.876 234.093H290.249V233.939C290.252 232.531 290.813 231.182 291.808 230.186C292.804 229.191 294.153 228.63 295.561 228.627H303.876V234.093Z" fill="#2F2E41"/>
<path d="M313.115 229.972H317.349L319.349 213.689H313.115V229.972Z" fill="#FFB7B7"/>
<path d="M312.037 228.588H320.352C321.76 228.591 323.11 229.152 324.105 230.147C325.101 231.143 325.661 232.492 325.664 233.9V234.054H312.037V228.588Z" fill="#2F2E41"/>
<path d="M295.254 91.9711C296.716 91.9711 298.145 92.4045 299.36 93.2167C300.575 94.0288 301.523 95.1831 302.082 96.5336C302.642 97.8842 302.788 99.3703 302.503 100.804C302.218 102.238 301.514 103.555 300.48 104.588C299.446 105.622 298.129 106.326 296.696 106.611C295.262 106.896 293.776 106.75 292.425 106.19C291.075 105.631 289.921 104.684 289.108 103.468C288.296 102.253 287.863 100.824 287.863 99.3621C287.863 97.4018 288.642 95.5219 290.028 94.1358C291.414 92.7498 293.294 91.9711 295.254 91.9711Z" fill="#FFB7B7"/>
<path d="M289.826 150.174C289.826 150.174 287.478 159.874 288.671 164.532C289.864 169.19 293.329 201.063 293.329 201.063L295.677 226.315L304.993 227.085L303.838 197.56L304.993 171.923L311.614 196.791V226.391L321.507 226.776L321.738 188.204C321.738 188.204 322.508 157.904 317.465 154.021C312.422 150.138 311.575 149.363 311.575 149.363L289.826 150.174Z" fill="#2F2E41"/>
<path d="M303.915 107.407L312.769 112.065L313.924 152.484C313.924 152.484 308.881 149.366 301.105 153.254C293.329 157.142 288.286 154.409 288.286 154.409L292.944 136.932L291.019 113.604L293.791 111.063L303.915 107.407Z" fill="#CBCBCB"/>
<path d="M293.753 110.37L292.136 111.679C292.136 111.679 282.05 116.722 281.627 120.225L288.633 139.28C288.633 139.28 290.558 143.553 289.018 145.093C287.478 146.633 285.9 150.521 286.285 152.484C286.67 154.447 283.937 162.57 287.055 162.57C290.173 162.57 297.564 143.9 297.141 136.548C296.718 129.196 296.564 109.833 293.754 110.372" fill="#2F2E41"/>
<path d="M300.566 107.873L304.108 107.296C304.108 107.296 317.308 110.796 319.275 116.612L313.847 130.201C313.847 130.201 317.735 155.069 316.58 155.069H315.425C315.425 155.069 318.543 157.417 316.58 158.187C314.617 158.957 309.959 165.155 308.804 162.46C307.649 159.765 300.643 127.468 301.413 120.501C302.183 113.534 299.873 108.606 300.566 107.875" fill="#2F2E41"/>
<path d="M302.106 92.1251L302.452 91.4321L300.72 90.5851C300.159 89.7055 299.341 89.0196 298.377 88.6202C297.413 88.2208 296.35 88.1272 295.331 88.3521C291.866 89.2371 290.288 89.7381 290.288 89.7381L288.556 90.6231L289.441 91.5081L287.863 92.0471L288.902 92.5471L287.67 93.2401L288.324 96.8201C288.324 96.8201 289.402 94.0871 291.481 95.1261C293.56 96.1651 297.37 94.5861 297.37 94.5861L300.681 101.015C300.681 101.015 301.374 98.7821 302.567 99.3601C302.644 99.3601 305.767 94.3941 302.105 92.1231" fill="#2F2E41"/>
<path d="M312.923 160.337C312.748 159.918 312.659 159.469 312.659 159.015C312.66 158.561 312.75 158.112 312.926 157.693C313.101 157.274 313.358 156.895 313.681 156.576C314.005 156.257 314.388 156.006 314.809 155.837C314.995 155.756 315.188 155.692 315.386 155.645L316.886 143.445L321.775 147.602L319.619 158.573C319.745 159.485 319.509 160.41 318.963 161.151C318.416 161.891 317.602 162.389 316.693 162.538C315.91 162.641 315.115 162.482 314.433 162.085C313.75 161.688 313.219 161.076 312.921 160.344" fill="#FFB7B7"/>
<path d="M292.059 159.49C292.313 158.607 292.21 157.66 291.77 156.853C291.331 156.046 290.591 155.444 289.711 155.179C289.51 155.119 289.304 155.08 289.095 155.064L286.323 143.054L281.935 147.673L285.246 158.336C285.228 158.794 285.301 159.25 285.459 159.68C285.618 160.109 285.86 160.503 286.171 160.839C286.482 161.175 286.856 161.446 287.272 161.638C287.688 161.829 288.138 161.937 288.595 161.954C289.368 162.005 290.135 161.788 290.766 161.339C291.397 160.89 291.854 160.237 292.059 159.49Z" fill="#FFB7B7"/>
<path d="M313.115 113.413C313.115 113.413 318.158 111.488 319.736 117.301C321.314 123.114 323.236 134.778 323.236 134.778C323.351 141.245 323.005 141.245 323.236 147.597L322.081 153.41L315.46 152.64L315.729 137.82L312.341 122.73L313.115 113.413Z" fill="#2F2E41"/>
<path d="M285.168 117.916L282.781 118.185C282.011 118.888 281.408 119.754 281.015 120.719C280.622 121.685 280.45 122.726 280.51 123.767C280.51 127.655 280.125 139.319 280.125 139.319C280.125 139.319 279.894 139.588 281.665 149.405C282.004 151.879 282.8 154.268 284.013 156.45L288.825 151.985L288.248 140.475L289.788 134.239L285.168 117.916Z" fill="#2F2E41"/>
<path d="M357.615 234.632H0.385C0.282892 234.632 0.184965 234.591 0.112764 234.519C0.0405624 234.447 0 234.349 0 234.247C0 234.145 0.0405624 234.047 0.112764 233.975C0.184965 233.903 0.282892 233.862 0.385 233.862H357.615C357.717 233.862 357.815 233.903 357.887 233.975C357.959 234.047 358 234.145 358 234.247C358 234.349 357.959 234.447 357.887 234.519C357.815 234.591 357.717 234.632 357.615 234.632Z" fill="#3F3D56"/>
<path d="M88.7688 103.25C90.4438 103.25 92.0812 103.747 93.4739 104.677C94.8666 105.608 95.9521 106.931 96.5931 108.478C97.2341 110.026 97.4019 111.728 97.0751 113.371C96.7483 115.014 95.9417 116.523 94.7573 117.707C93.5729 118.892 92.0638 119.698 90.421 120.025C88.7782 120.352 87.0754 120.184 85.5278 119.543C83.9803 118.902 82.6577 117.817 81.7271 116.424C80.7965 115.031 80.2998 113.394 80.2998 111.719C80.2998 109.473 81.1921 107.319 82.7803 105.731C84.3685 104.142 86.5227 103.25 88.7688 103.25Z" fill="#FFB8B8"/>
<path d="M85.728 161.874H85.42C84.9218 161.832 84.4369 161.692 83.993 161.462C83.5491 161.231 83.1549 160.916 82.8331 160.533C82.5113 160.151 82.2682 159.708 82.1177 159.232C81.9672 158.755 81.9122 158.253 81.956 157.755C81.9629 157.611 81.9888 157.469 82.033 157.332C82.071 157.217 82.071 157.101 82.11 156.986L69.599 142.166C69.1884 141.684 68.9472 141.081 68.9125 140.448C68.8779 139.816 69.0516 139.19 69.407 138.666L69.446 138.628L80.725 127.503C81.3427 126.896 82.1764 126.558 83.0427 126.566C83.909 126.573 84.737 126.924 85.3445 127.541C85.952 128.159 86.2892 128.993 86.282 129.859C86.2747 130.726 85.9237 131.554 85.306 132.161L85.268 132.199L77.107 139.936L86.038 154.256C86.207 154.263 86.3747 154.289 86.538 154.333C87.5217 154.535 88.3857 155.117 88.9411 155.954C89.4965 156.791 89.6982 157.813 89.502 158.798C89.316 159.663 88.8412 160.439 88.1558 160.999C87.4703 161.559 86.6149 161.869 85.73 161.878" fill="#FFB8B8"/>
<path d="M102.742 229.743H106.976L109.016 213.421H102.742V229.743Z" fill="#FFB8B8"/>
<path d="M101.664 228.357H110.017C111.425 228.36 112.774 228.921 113.77 229.916C114.766 230.912 115.326 232.261 115.329 233.669V233.823H101.664V228.357Z" fill="#2F2E41"/>
<path d="M60.668 223.893L64.325 226.049L74.411 213.038L69.022 209.838L60.668 223.893Z" fill="#FFB8B8"/>
<path d="M60.475 222.16L67.635 226.433C68.8415 227.156 69.713 228.327 70.0593 229.69C70.4055 231.053 70.1983 232.498 69.483 233.709L69.406 233.863L57.665 226.895L60.475 222.16Z" fill="#2F2E41"/>
<path d="M107.978 223.969H103.243C102.86 223.97 102.491 223.828 102.206 223.572C101.922 223.316 101.742 222.964 101.703 222.583L96.9298 177.66C96.9224 177.592 96.9015 177.526 96.8685 177.465C96.8354 177.405 96.7908 177.352 96.7372 177.309C96.6836 177.266 96.6221 177.234 96.5561 177.215C96.4902 177.196 96.4211 177.19 96.3529 177.198C96.2611 177.206 96.1734 177.24 96.0989 177.294C96.0245 177.348 95.966 177.421 95.9298 177.506L87.3068 196.599L72.0629 221.466C71.8623 221.785 71.5545 222.023 71.1948 222.135C70.8351 222.248 70.4469 222.229 70.0998 222.082L64.0178 219.387C63.6431 219.22 63.3486 218.913 63.1976 218.532C63.0465 218.151 63.0509 217.725 63.2098 217.347C63.2478 217.27 63.2479 217.231 63.2869 217.193L77.2969 193.714L81.6079 173.928C80.2609 165.344 86.0729 152.602 86.1079 152.448L86.1459 152.371L102.121 146.135L102.198 146.25C108.511 166.922 112.322 189.172 109.512 222.585C109.478 222.968 109.301 223.324 109.015 223.581C108.729 223.839 108.356 223.978 107.972 223.971" fill="#2F2E41"/>
<path d="M85.5352 154.448L85.4582 154.294C85.4202 154.217 81.8782 146.711 79.1452 138.704C78.6155 137.156 78.4138 135.514 78.5529 133.884C78.6921 132.254 79.1689 130.67 79.9532 129.234C81.039 127.252 82.6661 125.62 84.6446 124.527C86.6231 123.435 88.8715 122.928 91.1273 123.065C93.3831 123.202 95.5534 123.978 97.3849 125.302C99.2164 126.626 100.634 128.444 101.471 130.543C103.627 135.971 102.934 141.783 102.318 146.326V146.403L102.241 146.441L85.5352 154.448Z" fill="#FF6A50"/>
<path d="M99.0848 106.945H85.6118V101.094C88.5758 99.939 91.4628 98.938 93.1948 101.094C93.9672 101.086 94.7333 101.232 95.4489 101.523C96.1644 101.814 96.815 102.244 97.363 102.788C97.9109 103.333 98.3453 103.98 98.6409 104.694C98.9365 105.407 99.0874 106.173 99.0848 106.945Z" fill="#2F2E41"/>
<path d="M84.8429 100.016C76.7979 100.016 74.5259 110.102 74.5259 115.799C74.5259 118.956 75.9499 120.11 78.2259 120.499L79.0339 116.265L80.8819 120.692C81.4979 120.692 82.1909 120.692 82.8819 120.653L83.4979 119.344L84.9219 120.614C90.5809 120.614 95.1219 121.461 95.1219 115.764C95.1599 110.105 93.1969 100.02 84.8439 100.02" fill="#2F2E41"/>
<path d="M120.643 111.334C120.702 111.433 120.754 111.536 120.797 111.642C121 112.097 121.111 112.587 121.125 113.084C121.138 113.582 121.052 114.077 120.873 114.542C120.695 115.007 120.426 115.431 120.082 115.792C119.739 116.152 119.328 116.441 118.872 116.642C118.751 116.71 118.622 116.762 118.487 116.796C118.377 116.84 118.26 116.866 118.141 116.873L111.135 134.965C110.907 135.56 110.49 136.063 109.948 136.397C109.406 136.731 108.769 136.877 108.135 136.813H108.097L92.9301 132.271C92.5206 132.15 92.1391 131.949 91.8072 131.68C91.4754 131.411 91.1997 131.08 90.996 130.704C90.7922 130.329 90.6644 129.917 90.6198 129.493C90.5752 129.068 90.6147 128.639 90.7361 128.229C90.8574 127.82 91.0582 127.438 91.327 127.106C91.5958 126.774 91.9274 126.499 92.3027 126.295C92.678 126.091 93.0898 125.963 93.5145 125.919C93.9393 125.874 94.3686 125.914 94.7781 126.035H94.8161L105.516 129.461L113.831 114.761C113.751 114.614 113.686 114.459 113.639 114.299C113.36 113.394 113.426 112.417 113.826 111.558C114.226 110.699 114.93 110.02 115.802 109.651C116.675 109.281 117.653 109.249 118.548 109.561C119.443 109.872 120.19 110.504 120.645 111.335" fill="#FFB8B8"/>
<path d="M255.298 65.4091C249.639 57.8261 239.284 56.0161 234.126 59.8661C228.968 63.7161 227.774 74.1861 233.472 81.7661C238.707 88.7721 248.215 90.6971 253.451 88.0791V88.3101L253.759 89.7731C253.801 89.9408 253.901 90.0878 254.043 90.1869C254.185 90.2859 254.357 90.3304 254.529 90.3121C254.622 90.2808 254.711 90.2423 254.798 90.1971L257.298 88.2341C257.369 88.1829 257.428 88.1177 257.473 88.0425C257.517 87.9673 257.546 87.8838 257.557 87.7971C257.567 87.7104 257.56 87.6224 257.536 87.5386C257.511 87.4548 257.469 87.377 257.413 87.3101C257.346 87.235 257.268 87.1703 257.182 87.1181L255.835 86.4641C255.79 86.4336 255.735 86.4202 255.681 86.4261C259.681 82.1151 260.57 72.4141 255.296 65.4081" fill="#415E87"/>
<path d="M242.901 62.522C245.67 62.9652 248.164 64.4539 249.869 66.6812C251.573 68.9086 252.359 71.7049 252.063 74.494C251.986 75.148 252.987 75.11 253.063 74.494C253.34 71.4895 252.477 68.4906 250.644 66.094C248.81 63.6974 246.142 62.0787 243.17 61.56C242.554 61.483 242.286 62.445 242.901 62.522Z" fill="white"/>
<path d="M66.288 74.918C71.254 66.873 69.098 56.5561 63.632 53.1691C58.166 49.7821 48.003 52.5531 43.037 60.6371C38.456 68.1051 40.188 77.6131 44.577 81.5371C44.4952 81.545 44.4162 81.5714 44.346 81.614L43.114 82.422C42.9674 82.5203 42.8652 82.6721 42.8293 82.8448C42.7934 83.0176 42.8267 83.1976 42.922 83.3461C42.9706 83.438 43.0537 83.5071 43.153 83.5381L45.886 85.155C46.0399 85.2439 46.2223 85.2695 46.3947 85.2264C46.5671 85.1833 46.716 85.0749 46.81 84.9241C46.8581 84.8283 46.8844 84.7231 46.887 84.616L47.002 83.116V82.9621C52.391 85.1561 61.702 82.386 66.288 74.918Z" fill="#415E87"/>
<path d="M64.363 62.3301C64.9777 65.0668 64.5176 67.9352 63.0777 70.3423C61.6377 72.7494 59.3281 74.5114 56.626 75.2641C56.01 75.4561 56.395 76.3801 57.011 76.1881C59.908 75.3401 62.378 73.4295 63.9268 70.8385C65.4756 68.2475 65.9889 65.1673 65.364 62.2141C65.249 61.5981 64.248 61.7141 64.364 62.3291" fill="white"/>
<path d="M313.846 16.5221C313.422 7.09106 305.878 -0.261942 299.449 0.00805797C293.02 0.278058 286.169 8.28406 286.592 17.7151C286.977 26.4531 293.752 33.3821 299.565 34.1521C299.502 34.2061 299.45 34.2712 299.411 34.3441L298.834 35.7301C298.797 35.8107 298.777 35.8979 298.775 35.9865C298.772 36.075 298.787 36.1632 298.82 36.2458C298.852 36.3283 298.9 36.4035 298.962 36.4669C299.024 36.5304 299.098 36.5807 299.18 36.6151C299.279 36.649 299.384 36.662 299.488 36.6531L302.645 36.4611C302.731 36.4571 302.816 36.436 302.894 36.3988C302.972 36.3616 303.042 36.3092 303.099 36.2446C303.157 36.18 303.2 36.1045 303.228 36.0227C303.256 35.9408 303.267 35.8543 303.261 35.7681C303.254 35.6617 303.228 35.5574 303.184 35.4601L302.453 34.1901C302.414 34.1521 302.376 34.1131 302.376 34.0751C308.076 32.8051 314.232 25.2981 313.847 16.5211" fill="#FF7236"/>
<path d="M305.223 7.20503C307.265 9.12806 308.491 11.7612 308.648 14.5616C308.806 17.362 307.883 20.1161 306.07 22.256C305.647 22.756 306.494 23.295 306.878 22.833C308.808 20.5136 309.79 17.5499 309.626 14.5367C309.462 11.5236 308.164 8.68406 305.993 6.58803C305.493 6.08803 304.761 6.74203 305.223 7.20403" fill="white"/>
<path d="M254.757 43.816C252.28 43.6631 249.875 42.9238 247.74 41.6589C245.605 40.3941 243.801 38.6399 242.477 36.541C242.232 36.2822 242.049 35.9708 241.942 35.6307C241.835 35.2905 241.808 34.9305 241.861 34.578C241.946 34.2962 242.128 34.0532 242.374 33.8915C242.62 33.7298 242.915 33.6595 243.208 33.693C243.568 33.772 243.892 33.9641 244.135 34.2413C244.377 34.5185 244.524 34.866 244.555 35.233C244.582 35.6089 244.483 35.983 244.273 36.2965C244.064 36.61 243.757 36.8452 243.4 36.965C241.668 37.696 239.935 36.58 238.55 35.656C235.35 33.616 231.85 31.73 228.002 31.499C226.199 31.3291 224.384 31.6341 222.736 32.3838C221.088 33.1335 219.665 34.3016 218.609 35.772C218.263 36.311 219.109 36.811 219.456 36.272C221.419 33.192 225.423 32.072 228.887 32.572C230.952 32.8878 232.946 33.5648 234.777 34.572C235.739 35.0727 236.664 35.6117 237.549 36.189C238.41 36.7967 239.325 37.3248 240.282 37.767C241.86 38.421 243.982 38.383 245.094 36.882C245.329 36.5265 245.478 36.1208 245.527 35.6975C245.577 35.2742 245.528 34.8451 245.382 34.4446C245.236 34.0441 244.998 33.6833 244.688 33.3913C244.377 33.0993 244.003 32.8841 243.594 32.763C243.293 32.7044 242.984 32.7057 242.683 32.7669C242.383 32.8281 242.098 32.948 241.844 33.1197C241.59 33.2914 241.372 33.5115 241.204 33.7674C241.035 34.0233 240.919 34.31 240.861 34.611C240.784 34.9142 240.784 35.2318 240.861 35.535C241.138 36.3769 241.568 37.1601 242.131 37.845C243.58 39.88 245.466 41.5653 247.651 42.7775C249.835 43.9897 252.263 44.6981 254.757 44.851C255.373 44.851 255.373 43.851 254.757 43.812" fill="#415E87"/>
</g>
</g>
</svg>
