<svg width="197" height="186" viewBox="0 0 197 186" fill="none" xmlns="http://www.w3.org/2000/svg">
<path d="M19.5557 167.707C18.8916 170.617 17.5537 172.946 15.542 174.694C13.501 176.452 11.1084 177.331 8.36426 177.331C5.7666 177.331 3.81836 176.647 2.51953 175.28C1.2207 173.903 0.571289 171.842 0.571289 169.098C0.571289 166.598 1.18652 164.035 2.41699 161.408C3.64746 158.781 5.22949 156.652 7.16309 155.021C8.52051 153.879 9.97559 153.307 11.5283 153.307C12.4756 153.307 13.7646 153.649 15.3955 154.333C17.3291 155.143 18.2959 156.008 18.2959 156.925C18.2959 157.453 18.0957 157.926 17.6953 158.346C17.2949 158.757 16.8018 158.962 16.2158 158.962C15.9229 158.962 15.2734 158.688 14.2676 158.141C13.2715 157.585 12.3584 157.306 11.5283 157.306C10.6494 157.306 9.46289 158.254 7.96875 160.148C5.79102 162.902 4.70215 165.885 4.70215 169.098C4.70215 170.729 4.94141 171.838 5.41992 172.424C5.92773 173.039 6.90918 173.346 8.36426 173.346C9.8584 173.346 11.1719 172.922 12.3047 172.072C13.5059 171.174 14.3945 169.865 14.9707 168.146C12.7051 168.322 10.7324 168.786 9.05273 169.538C8.75 169.674 8.44727 169.743 8.14453 169.743C7.53906 169.743 7.03613 169.518 6.63574 169.069C6.27441 168.669 6.09375 168.215 6.09375 167.707C6.09375 166.213 7.86133 165.168 11.3965 164.572C13.3887 164.24 15.7129 164.074 18.3691 164.074C18.9551 164.074 19.4434 164.264 19.834 164.645C20.2344 165.026 20.4346 165.495 20.4346 166.051C20.4346 166.764 20.1416 167.316 19.5557 167.707ZM34.4092 159.006C33.9014 159.006 32.5098 158.869 30.2344 158.595C30.0977 160.392 30.0293 162.78 30.0293 165.758L30.0146 172.336C31.3135 172.306 32.6367 172.292 33.9844 172.292C34.5703 172.292 35.0537 172.487 35.4346 172.878C35.8252 173.268 36.0205 173.737 36.0205 174.284C36.0205 174.831 35.8252 175.299 35.4346 175.69C35.0537 176.071 34.5703 176.261 33.9844 176.261C33.4375 176.261 32.6172 176.276 31.5234 176.305C30.4297 176.325 29.6094 176.335 29.0625 176.335C28.418 176.335 27.4512 176.418 26.1621 176.584C24.873 176.759 23.9062 176.847 23.2617 176.847C22.6758 176.847 22.1875 176.657 21.7969 176.276C21.416 175.885 21.2256 175.417 21.2256 174.87C21.2256 174.323 21.416 173.854 21.7969 173.464C22.1875 173.073 22.6758 172.878 23.2617 172.878C23.9258 172.878 24.7998 172.804 25.8838 172.658C25.8643 171.506 25.8545 169.299 25.8545 166.037C25.8545 163.381 25.9521 160.846 26.1475 158.434L22.9688 158.522C22.3828 158.522 21.8896 158.332 21.4893 157.951C21.0986 157.57 20.9033 157.096 20.9033 156.53C20.9033 155.954 21.0986 155.485 21.4893 155.124C21.8506 154.792 22.2949 154.601 22.8223 154.552C23.6816 154.474 25.1758 154.435 27.3047 154.435C29.2188 154.435 31.6846 154.64 34.7021 155.05C35.9033 155.216 36.5039 155.89 36.5039 157.072C36.5039 157.697 36.2598 158.19 35.7715 158.551C35.3711 158.854 34.917 159.006 34.4092 159.006ZM52.2656 158.009C52.041 158.009 51.792 157.966 51.5186 157.878C50.2588 157.467 48.7207 157.262 46.9043 157.262C46.3086 157.262 45.6201 157.301 44.8389 157.38C44.0674 157.458 43.208 157.575 42.2607 157.731C42.2803 159.606 42.2803 161.217 42.2607 162.565C43.7451 162.204 44.9756 162.023 45.9521 162.023C47.7686 162.023 49.3506 162.106 50.6982 162.272C51.958 162.428 52.5879 163.092 52.5879 164.264C52.5879 164.831 52.3877 165.304 51.9873 165.685C51.5869 166.066 51.0986 166.257 50.5225 166.257C50.0146 166.257 49.2529 166.217 48.2373 166.139C47.2217 166.061 46.46 166.022 45.9521 166.022C45.2393 166.022 44.0088 166.247 42.2607 166.696V175.881C42.2607 176.447 42.0361 176.921 41.5869 177.301C41.1475 177.682 40.6396 177.873 40.0635 177.873C39.4971 177.873 39.0381 177.682 38.6865 177.301C38.335 176.93 38.1592 176.457 38.1592 175.881V159.093C38.1592 158.713 38.1641 158.136 38.1738 157.365C38.1934 156.593 38.2031 156.017 38.2031 155.636C38.2031 155.06 38.3936 154.582 38.7744 154.201C39.165 153.82 39.6533 153.63 40.2393 153.63C40.6104 153.63 40.9375 153.703 41.2207 153.849C42.3535 153.654 43.3936 153.512 44.3408 153.424C45.2881 153.327 46.1426 153.278 46.9043 153.278C48.0176 153.278 49.4189 153.508 51.1084 153.966C53.2275 154.543 54.2871 155.212 54.2871 155.973C54.2871 156.53 54.0869 157.008 53.6865 157.409C53.2959 157.809 52.8223 158.009 52.2656 158.009ZM74.0039 158.757C73.2422 158.757 72.0557 158.703 70.4443 158.595C68.8916 158.488 67.7051 158.439 66.8848 158.449C66.9238 159.562 67.0557 161.545 67.2803 164.396C67.4854 166.916 67.5879 168.908 67.5879 170.373C67.5879 170.705 67.6221 171.198 67.6904 171.852C67.7588 172.507 67.793 173 67.793 173.332C67.793 174.064 67.6367 174.723 67.3242 175.309C66.9238 176.061 66.3525 176.437 65.6104 176.437C65.0732 176.437 64.5996 176.266 64.1895 175.924C63.7305 175.544 63.501 175.065 63.501 174.489C63.501 174.352 63.5254 174.147 63.5742 173.874C63.623 173.591 63.6475 173.376 63.6475 173.229C63.6475 172.78 63.6133 172.101 63.5449 171.193C63.4863 170.285 63.457 169.601 63.457 169.142C63.457 167.834 63.3545 166.061 63.1494 163.825C62.915 161.257 62.7783 159.484 62.7393 158.508H61.9775C59.7998 158.508 58.0713 158.351 56.792 158.039C55.708 157.775 55.166 157.135 55.166 156.12C55.166 155.622 55.3418 155.173 55.6934 154.772C56.1035 154.294 56.6406 154.079 57.3047 154.128C57.6465 154.147 58.4229 154.23 59.6338 154.377C60.6006 154.484 61.3818 154.538 61.9775 154.538C62.5732 154.538 63.4619 154.528 64.6436 154.508C65.835 154.489 66.7285 154.479 67.3242 154.479C68.0664 154.479 69.1797 154.533 70.6641 154.64C72.1484 154.738 73.2617 154.787 74.0039 154.787C74.5898 154.787 75.0781 154.977 75.4688 155.358C75.8691 155.739 76.0693 156.208 76.0693 156.764C76.0693 157.321 75.8691 157.795 75.4688 158.185C75.0781 158.566 74.5898 158.757 74.0039 158.757ZM84.2725 177.214C81.792 177.214 79.8389 176.662 78.4131 175.558C77.2119 174.64 76.6113 173.581 76.6113 172.38C76.6113 171.764 76.7969 171.257 77.168 170.856C77.5391 170.446 78.0518 170.241 78.7061 170.241C79.585 170.241 80.2295 170.69 80.6396 171.589C81.1963 172.79 82.4561 173.39 84.4189 173.39C86.0986 173.39 87.7246 173.024 89.2969 172.292C90.9277 171.54 91.7432 170.715 91.7432 169.816C91.7432 168.586 91.2354 167.775 90.2197 167.384C89.4971 167.101 88.0469 166.935 85.8691 166.886C84.1797 166.847 82.666 166.53 81.3281 165.934C79.5215 165.124 78.6328 163.962 78.6621 162.448C78.6914 160.544 79.707 158.8 81.709 157.218C83.7109 155.627 85.918 154.831 88.3301 154.831C89.2871 154.831 90.4688 155.05 91.875 155.49C93.623 156.037 94.4971 156.667 94.4971 157.38C94.4971 157.887 94.3213 158.337 93.9697 158.727C93.5791 159.167 93.0762 159.386 92.4609 159.386C92.002 159.386 91.3135 159.289 90.3955 159.093C89.4873 158.898 88.7988 158.8 88.3301 158.8C87.0703 158.81 85.874 159.113 84.7412 159.709C83.5693 160.314 82.9834 160.973 82.9834 161.686C82.9834 162.057 83.1592 162.365 83.5107 162.609C83.8721 162.843 84.4092 163.009 85.1221 163.107C86.3721 163.175 87.6172 163.244 88.8574 163.312C91.0254 163.478 92.7393 164.089 93.999 165.143C95.3857 166.315 96.0791 167.936 96.0791 170.007C96.0791 172.526 94.6436 174.435 91.7725 175.734C89.585 176.72 87.085 177.214 84.2725 177.214ZM120.381 170.27H114.536C111.401 170.27 109.834 169.631 109.834 168.351C109.834 167.814 110.107 167.214 110.654 166.549C111.104 166.042 111.558 165.529 112.017 165.011C113.589 162.765 115.986 159.425 119.209 154.992C119.971 153.976 120.962 153.468 122.183 153.468C122.759 153.468 123.257 153.615 123.677 153.908C124.175 154.259 124.424 154.753 124.424 155.387L124.438 166.403C125.718 166.442 126.572 166.574 127.002 166.799C127.48 167.062 127.72 167.58 127.72 168.351C127.729 169.162 127.358 169.718 126.606 170.021C126.079 170.226 125.356 170.309 124.438 170.27C124.468 171.676 124.463 173.2 124.424 174.841C124.414 175.378 124.238 175.822 123.896 176.174C123.555 176.525 123.091 176.701 122.505 176.701C121.021 176.701 120.312 175.724 120.381 173.771V170.27ZM120.381 159.826C119.434 161.32 117.974 163.512 116.001 166.403H120.381V159.826ZM159.346 176.759C158.574 176.73 157.798 175.822 157.017 174.035C156.499 172.883 156.055 171.554 155.684 170.05C154.961 170.158 153.779 170.265 152.139 170.373C150.596 170.48 149.414 170.607 148.594 170.754C148.145 171.828 147.363 173.444 146.25 175.602C145.82 176.305 145.225 176.657 144.463 176.657C143.926 176.657 143.442 176.476 143.013 176.115C142.583 175.744 142.368 175.275 142.368 174.709C142.368 174.211 143.081 172.521 144.507 169.64C144.37 169.338 144.312 169.054 144.331 168.791C144.37 168.322 144.844 167.956 145.752 167.692C147.139 165.29 148.682 162.799 150.381 160.221C152.822 156.52 154.326 154.67 154.893 154.67C155.967 154.67 156.685 155.319 157.046 156.618C157.241 157.663 157.549 159.23 157.969 161.32C158.564 164.133 159.292 167.35 160.151 170.973C160.22 171.247 160.469 171.891 160.898 172.907C161.25 173.747 161.426 174.377 161.426 174.797C161.426 175.363 161.211 175.837 160.781 176.217C160.361 176.598 159.883 176.779 159.346 176.759ZM153.882 161.73C153.12 163.039 152.07 164.821 150.732 167.077C151.172 166.979 151.855 166.901 152.783 166.842C153.877 166.774 154.565 166.72 154.849 166.681C154.614 165.412 154.292 163.761 153.882 161.73ZM178.242 175.763C177.09 176.271 175.308 176.725 172.896 177.126C170.688 177.497 168.877 177.682 167.461 177.682C165.068 177.682 163.872 176.633 163.872 174.533C163.872 174.699 163.97 173.151 164.165 169.889C164.419 165.651 164.546 160.934 164.546 155.739C164.546 155.182 164.736 154.709 165.117 154.318C165.508 153.927 165.996 153.732 166.582 153.732C167.168 153.732 167.656 153.927 168.047 154.318C168.438 154.709 168.633 155.182 168.633 155.739C168.633 160.944 168.501 165.739 168.237 170.124C168.149 170.905 168.057 172.101 167.959 173.713C170.273 173.674 173.242 173.107 176.865 172.013C177.09 171.945 177.305 171.911 177.51 171.911C178.125 171.911 178.623 172.135 179.004 172.585C179.346 172.985 179.517 173.434 179.517 173.932C179.517 174.772 179.092 175.383 178.242 175.763ZM194.766 175.763C193.613 176.271 191.831 176.725 189.419 177.126C187.212 177.497 185.4 177.682 183.984 177.682C181.592 177.682 180.396 176.633 180.396 174.533C180.396 174.699 180.493 173.151 180.688 169.889C180.942 165.651 181.069 160.934 181.069 155.739C181.069 155.182 181.26 154.709 181.641 154.318C182.031 153.927 182.52 153.732 183.105 153.732C183.691 153.732 184.18 153.927 184.57 154.318C184.961 154.709 185.156 155.182 185.156 155.739C185.156 160.944 185.024 165.739 184.761 170.124C184.673 170.905 184.58 172.101 184.482 173.713C186.797 173.674 189.766 173.107 193.389 172.013C193.613 171.945 193.828 171.911 194.033 171.911C194.648 171.911 195.146 172.135 195.527 172.585C195.869 172.985 196.04 173.434 196.04 173.932C196.04 174.772 195.615 175.383 194.766 175.763Z" fill="white"/>
<mask id="mask0_62_6" style="mask-type:luminance" maskUnits="userSpaceOnUse" x="48" y="0" width="97" height="121">
<path d="M144.069 0H48.0088V120.14H144.069V0Z" fill="white"/>
</mask>
<g mask="url(#mask0_62_6)">
<path d="M92.8467 54.861V120.029C92.0847 120.068 91.4167 120.129 90.7467 120.129C80.2861 120.136 69.8254 120.136 59.3647 120.129C54.7767 120.129 52.6167 117.942 52.6147 113.308C52.6067 94.508 52.6297 75.717 52.5747 56.922C52.5697 55.222 53.0057 54.71 54.7617 54.722C66.7877 54.804 78.8147 54.766 90.8417 54.772C91.4557 54.772 92.0697 54.822 92.8417 54.857" fill="white"/>
<path d="M99.4428 119.855V117.642C99.4475 97.4173 99.4415 77.1927 99.4248 56.968C99.4248 55.415 99.8648 54.909 101.425 54.916C113.507 54.9673 125.589 54.9713 137.672 54.928C139.014 54.928 139.54 55.284 139.537 56.728C139.495 75.828 139.52 94.928 139.495 114.021C139.495 117.56 137.25 119.976 133.87 119.992C122.789 120.042 111.708 120.01 100.628 120.004C100.23 119.975 99.8337 119.925 99.4408 119.855" fill="white"/>
<path d="M92.8648 37.444V51.465C92.1778 51.499 91.5728 51.555 90.9648 51.555C77.3128 51.561 63.6648 51.534 50.0088 51.597C48.4288 51.605 47.9458 51.147 48.0088 49.597C48.1208 46.971 48.0088 44.336 48.0528 41.706C48.0998 38.906 49.5888 37.343 52.3478 37.337C65.4991 37.307 78.6501 37.307 91.8008 37.337C92.1008 37.337 92.4008 37.399 92.8588 37.449" fill="white"/>
<path d="M99.45 37.526C100.309 37.484 100.919 37.426 101.528 37.426C114.041 37.426 126.555 37.43 139.068 37.438C142.823 37.438 144.038 38.655 144.055 42.363C144.067 44.863 144.022 47.37 144.067 49.872C144.087 50.953 143.806 51.415 142.592 51.412C128.829 51.3694 115.066 51.364 101.303 51.396C99.986 51.396 99.391 51.049 99.421 49.596C99.504 45.612 99.45 41.623 99.45 37.526Z" fill="white"/>
<path d="M87.8179 33.505C79.4179 31.505 71.0179 29.191 64.7039 22.613C59.2709 16.954 59.8599 8.70601 65.8709 3.44501C67.1988 2.21708 68.7683 1.27988 70.4791 0.693387C72.19 0.106897 74.0044 -0.115964 75.8063 0.0390664C77.6082 0.194097 79.3579 0.723605 80.9434 1.5937C82.529 2.4638 83.9154 3.65532 85.0139 5.09201C86.5964 7.18667 87.9212 9.46402 88.9599 11.875C91.2915 17.4033 92.6475 23.2937 92.9679 29.285C91.4879 25.93 90.2369 22.449 88.4679 19.257C86.653 15.9104 84.518 12.7477 82.0929 9.81301C79.7099 6.99201 76.5159 5.29901 72.5609 6.51301C71.5808 6.80078 70.6692 7.28414 69.881 7.93393C69.0928 8.58371 68.4444 9.38645 67.975 10.2937C67.5056 11.2009 67.2249 12.1939 67.1497 13.2126C67.0746 14.2313 67.2067 15.2547 67.5379 16.221C68.9289 20.507 72.1289 23.377 75.6279 25.821C79.5619 28.57 83.7459 30.96 87.8209 33.506" fill="white"/>
<path d="M106.622 33.675C110.76 32.068 114.766 30.808 118.482 28.962C120.855 27.7275 122.978 26.0641 124.745 24.056C125.712 22.9627 126.262 21.5628 126.297 20.1036C126.332 18.6443 125.85 17.2196 124.937 16.081C124.013 14.8802 122.713 14.0225 121.246 13.6442C119.779 13.2659 118.227 13.3887 116.837 13.993C112.456 15.711 109.526 19.154 106.683 22.668C105.369 24.4563 103.952 26.1669 102.439 27.791C103.048 26.323 103.591 24.822 104.279 23.391C106.702 18.345 109.267 13.373 114.231 10.273C115.538 9.46169 117.002 8.93705 118.526 8.73381C120.051 8.53058 121.601 8.65338 123.075 9.09408C124.548 9.53479 125.911 10.2834 127.074 11.2903C128.237 12.2972 129.172 13.5395 129.819 14.935C132.736 21.035 130.681 26.991 124.57 30.09C119.011 32.909 113.011 33.538 106.624 33.675" fill="white"/>
<path d="M100.202 23.359C101.111 20.64 102.076 17.905 102.915 15.133C103.057 14.3975 103.042 13.6401 102.87 12.911C102.792 12.0903 102.435 11.3211 101.859 10.7319C101.282 10.1427 100.521 9.76928 99.7019 9.67401C98.8924 9.51619 98.0534 9.63669 97.3211 10.0159C96.5887 10.3952 96.0061 11.0109 95.6679 11.763C94.2199 14.391 94.6249 17.232 94.8379 20.031C94.9179 21.081 95.2069 22.115 95.3029 23.176C93.6369 19.543 92.2359 15.836 93.0679 11.715C93.2359 10.9322 93.5585 10.1907 94.0168 9.53415C94.475 8.8776 95.0598 8.31915 95.7367 7.89155C96.4137 7.46394 97.1692 7.17579 97.9589 7.044C98.7487 6.9122 99.5568 6.9394 100.336 7.12401C101.934 7.3743 103.367 8.24733 104.323 9.55208C105.279 10.8568 105.679 12.487 105.436 14.086C104.824 17.833 102.563 20.657 100.208 23.359" fill="white"/>
</g>
</svg>
