<svg width="165" height="159" viewBox="0 0 165 159" fill="none" xmlns="http://www.w3.org/2000/svg">
<path d="M16.6372 144.783C16.0838 147.208 14.9689 149.149 13.2925 150.606C11.5916 152.071 9.59782 152.803 7.31104 152.803C5.14632 152.803 3.52279 152.234 2.44043 151.094C1.35807 149.947 0.816895 148.23 0.816895 145.943C0.816895 143.86 1.32959 141.723 2.35498 139.534C3.38037 137.345 4.69873 135.571 6.31006 134.212C7.44124 133.26 8.65381 132.784 9.94775 132.784C10.7371 132.784 11.8114 133.069 13.1704 133.638C14.7817 134.314 15.5874 135.034 15.5874 135.799C15.5874 136.238 15.4206 136.633 15.0869 136.983C14.7533 137.325 14.3423 137.496 13.854 137.496C13.6099 137.496 13.0687 137.268 12.2305 136.812C11.4004 136.348 10.6395 136.116 9.94775 136.116C9.21533 136.116 8.22656 136.906 6.98145 138.484C5.16667 140.779 4.25928 143.265 4.25928 145.943C4.25928 147.302 4.45866 148.226 4.85742 148.714C5.2806 149.227 6.09847 149.483 7.31104 149.483C8.55615 149.483 9.65072 149.129 10.5947 148.421C11.5957 147.672 12.3363 146.582 12.8164 145.149C10.9284 145.296 9.28451 145.682 7.88477 146.309C7.63249 146.423 7.38021 146.48 7.12793 146.48C6.62337 146.48 6.20426 146.293 5.87061 145.918C5.5695 145.585 5.41895 145.206 5.41895 144.783C5.41895 143.538 6.89193 142.667 9.83789 142.171C11.498 141.894 13.4349 141.756 15.6484 141.756C16.1367 141.756 16.5436 141.915 16.8691 142.232C17.2028 142.549 17.3696 142.94 17.3696 143.404C17.3696 143.998 17.1255 144.458 16.6372 144.783ZM29.0151 137.532C28.592 137.532 27.4323 137.418 25.5361 137.19C25.4222 138.688 25.3652 140.678 25.3652 143.16L25.353 148.641C26.4354 148.616 27.5381 148.604 28.6611 148.604C29.1494 148.604 29.5522 148.767 29.8696 149.092C30.1951 149.418 30.3579 149.808 30.3579 150.264C30.3579 150.72 30.1951 151.111 29.8696 151.436C29.5522 151.753 29.1494 151.912 28.6611 151.912C28.2054 151.912 27.5218 151.924 26.6104 151.949C25.6989 151.965 25.0153 151.973 24.5596 151.973C24.0225 151.973 23.2168 152.042 22.1426 152.181C21.0684 152.327 20.2627 152.4 19.7256 152.4C19.2373 152.4 18.8304 152.242 18.5049 151.924C18.1875 151.599 18.0288 151.208 18.0288 150.752C18.0288 150.297 18.1875 149.906 18.5049 149.581C18.8304 149.255 19.2373 149.092 19.7256 149.092C20.279 149.092 21.0073 149.031 21.9106 148.909C21.8944 147.949 21.8862 146.11 21.8862 143.392C21.8862 141.178 21.9676 139.066 22.1304 137.056L19.4814 137.129C18.9932 137.129 18.5822 136.971 18.2485 136.653C17.923 136.336 17.7603 135.941 17.7603 135.469C17.7603 134.989 17.923 134.598 18.2485 134.297C18.5496 134.021 18.9199 133.862 19.3594 133.821C20.0755 133.756 21.3206 133.724 23.0947 133.724C24.6898 133.724 26.7446 133.895 29.2593 134.236C30.2603 134.375 30.7607 134.936 30.7607 135.921C30.7607 136.442 30.5573 136.853 30.1504 137.154C29.8167 137.406 29.4383 137.532 29.0151 137.532ZM43.8955 136.702C43.7083 136.702 43.5008 136.666 43.2729 136.592C42.2231 136.25 40.9414 136.08 39.4277 136.08C38.9313 136.08 38.3576 136.112 37.7065 136.177C37.0636 136.242 36.3475 136.34 35.5581 136.47C35.5744 138.033 35.5744 139.375 35.5581 140.499C36.7951 140.197 37.8205 140.047 38.6343 140.047C40.1479 140.047 41.4663 140.116 42.5894 140.254C43.6392 140.385 44.1641 140.938 44.1641 141.915C44.1641 142.387 43.9972 142.781 43.6636 143.099C43.3299 143.416 42.923 143.575 42.4429 143.575C42.0197 143.575 41.3849 143.542 40.5386 143.477C39.6922 143.412 39.0575 143.379 38.6343 143.379C38.0402 143.379 37.0148 143.567 35.5581 143.941V151.595C35.5581 152.067 35.3709 152.461 34.9966 152.779C34.6304 153.096 34.2072 153.255 33.7271 153.255C33.255 153.255 32.8726 153.096 32.5796 152.779C32.2866 152.47 32.1401 152.075 32.1401 151.595V137.605C32.1401 137.288 32.1442 136.808 32.1523 136.165C32.1686 135.522 32.1768 135.042 32.1768 134.725C32.1768 134.244 32.3354 133.846 32.6528 133.528C32.9784 133.211 33.3853 133.052 33.8735 133.052C34.1828 133.052 34.4554 133.113 34.6914 133.235C35.6354 133.073 36.5021 132.955 37.2915 132.881C38.0809 132.8 38.793 132.759 39.4277 132.759C40.3555 132.759 41.5233 132.951 42.9312 133.333C44.6971 133.813 45.5801 134.371 45.5801 135.005C45.5801 135.469 45.4132 135.868 45.0796 136.202C44.7541 136.535 44.3594 136.702 43.8955 136.702ZM62.0107 137.325C61.376 137.325 60.3872 137.28 59.0444 137.19C57.7505 137.101 56.7617 137.06 56.0781 137.068C56.1107 137.996 56.2205 139.648 56.4077 142.024C56.5786 144.124 56.6641 145.784 56.6641 147.005C56.6641 147.282 56.6925 147.693 56.7495 148.238C56.8065 148.783 56.835 149.194 56.835 149.471C56.835 150.081 56.7048 150.63 56.4443 151.119C56.1107 151.745 55.6346 152.059 55.0161 152.059C54.5685 152.059 54.1738 151.916 53.832 151.631C53.4495 151.314 53.2583 150.915 53.2583 150.435C53.2583 150.321 53.2786 150.15 53.3193 149.922C53.36 149.686 53.3804 149.507 53.3804 149.385C53.3804 149.011 53.3519 148.445 53.2949 147.688C53.2461 146.932 53.2217 146.362 53.2217 145.979C53.2217 144.889 53.1362 143.412 52.9653 141.548C52.77 139.408 52.6561 137.931 52.6235 137.117H51.9888C50.174 137.117 48.7336 136.987 47.6675 136.727C46.7642 136.507 46.3125 135.974 46.3125 135.127C46.3125 134.712 46.459 134.338 46.752 134.004C47.0938 133.606 47.5413 133.427 48.0947 133.467C48.3796 133.484 49.0265 133.553 50.0356 133.675C50.8413 133.764 51.4924 133.809 51.9888 133.809C52.4852 133.809 53.2257 133.801 54.2104 133.785C55.2033 133.768 55.9479 133.76 56.4443 133.76C57.0628 133.76 57.9906 133.805 59.2275 133.895C60.4645 133.976 61.3923 134.017 62.0107 134.017C62.499 134.017 62.9059 134.175 63.2314 134.493C63.5651 134.81 63.7319 135.201 63.7319 135.665C63.7319 136.128 63.5651 136.523 63.2314 136.849C62.9059 137.166 62.499 137.325 62.0107 137.325ZM70.5679 152.706C68.5008 152.706 66.8732 152.246 65.6851 151.326C64.6841 150.561 64.1836 149.678 64.1836 148.677C64.1836 148.165 64.3382 147.741 64.6475 147.408C64.9567 147.066 65.384 146.895 65.9292 146.895C66.6616 146.895 67.1987 147.269 67.5405 148.018C68.0044 149.019 69.0542 149.52 70.6899 149.52C72.0897 149.52 73.4447 149.214 74.7549 148.604C76.1139 147.977 76.7935 147.29 76.7935 146.541C76.7935 145.516 76.3703 144.84 75.5239 144.515C74.9217 144.279 73.7132 144.14 71.8984 144.1C70.4906 144.067 69.2292 143.803 68.1143 143.306C66.6087 142.631 65.8682 141.662 65.8926 140.401C65.917 138.814 66.7633 137.361 68.4316 136.043C70.0999 134.716 71.9391 134.053 73.9492 134.053C74.7467 134.053 75.7314 134.236 76.9033 134.603C78.36 135.058 79.0884 135.583 79.0884 136.177C79.0884 136.6 78.9419 136.975 78.6489 137.3C78.3234 137.667 77.9043 137.85 77.3916 137.85C77.0091 137.85 76.4354 137.768 75.6704 137.605C74.9136 137.443 74.3398 137.361 73.9492 137.361C72.8994 137.369 71.9025 137.622 70.9585 138.118C69.9819 138.623 69.4937 139.172 69.4937 139.766C69.4937 140.075 69.6401 140.332 69.9331 140.535C70.2342 140.73 70.6818 140.869 71.2759 140.95C72.3175 141.007 73.3551 141.064 74.3887 141.121C76.1953 141.259 77.6235 141.768 78.6733 142.647C79.8289 143.624 80.4067 144.974 80.4067 146.7C80.4067 148.799 79.2104 150.39 76.8179 151.473C74.995 152.295 72.9116 152.706 70.5679 152.706ZM100.658 146.919H95.7876C93.1753 146.919 91.8691 146.386 91.8691 145.32C91.8691 144.873 92.097 144.372 92.5527 143.819C92.9271 143.396 93.3055 142.968 93.688 142.537C94.9982 140.665 96.9961 137.882 99.6816 134.188C100.316 133.341 101.142 132.918 102.16 132.918C102.64 132.918 103.055 133.04 103.405 133.284C103.82 133.577 104.027 133.988 104.027 134.517L104.04 143.697C105.106 143.729 105.818 143.839 106.176 144.026C106.575 144.246 106.774 144.677 106.774 145.32C106.782 145.996 106.473 146.46 105.846 146.712C105.407 146.883 104.805 146.952 104.04 146.919C104.064 148.091 104.06 149.361 104.027 150.728C104.019 151.176 103.873 151.546 103.588 151.839C103.303 152.132 102.917 152.278 102.428 152.278C101.191 152.278 100.601 151.465 100.658 149.837V146.919ZM100.658 138.216C99.8688 139.461 98.6522 141.288 97.0083 143.697H100.658V138.216ZM133.129 152.327C132.486 152.303 131.839 151.546 131.188 150.057C130.757 149.096 130.386 147.99 130.077 146.736C129.475 146.826 128.49 146.915 127.123 147.005C125.837 147.094 124.853 147.2 124.169 147.322C123.795 148.217 123.144 149.564 122.216 151.363C121.858 151.949 121.361 152.242 120.727 152.242C120.279 152.242 119.876 152.091 119.518 151.79C119.16 151.481 118.981 151.09 118.981 150.618C118.981 150.203 119.575 148.795 120.763 146.395C120.649 146.142 120.6 145.906 120.617 145.687C120.649 145.296 121.044 144.991 121.801 144.771C122.956 142.769 124.242 140.694 125.658 138.545C127.693 135.461 128.946 133.919 129.418 133.919C130.313 133.919 130.911 134.46 131.212 135.542C131.375 136.413 131.632 137.719 131.981 139.461C132.478 141.805 133.084 144.486 133.8 147.505C133.857 147.733 134.065 148.27 134.423 149.117C134.716 149.817 134.862 150.341 134.862 150.691C134.862 151.163 134.683 151.558 134.325 151.875C133.975 152.193 133.576 152.343 133.129 152.327ZM128.576 139.803C127.941 140.893 127.066 142.378 125.951 144.258C126.317 144.177 126.887 144.112 127.66 144.063C128.572 144.006 129.145 143.961 129.381 143.929C129.186 142.871 128.917 141.495 128.576 139.803ZM148.876 151.497C147.916 151.92 146.431 152.299 144.42 152.632C142.581 152.942 141.072 153.096 139.892 153.096C137.898 153.096 136.901 152.221 136.901 150.472C136.901 150.61 136.982 149.32 137.145 146.602C137.357 143.07 137.462 139.139 137.462 134.81C137.462 134.346 137.621 133.951 137.938 133.626C138.264 133.3 138.671 133.138 139.159 133.138C139.647 133.138 140.054 133.3 140.38 133.626C140.705 133.951 140.868 134.346 140.868 134.81C140.868 139.148 140.758 143.143 140.539 146.797C140.465 147.448 140.388 148.445 140.307 149.788C142.235 149.756 144.709 149.284 147.729 148.372C147.916 148.315 148.095 148.287 148.266 148.287C148.778 148.287 149.193 148.474 149.511 148.848C149.796 149.182 149.938 149.556 149.938 149.971C149.938 150.671 149.584 151.18 148.876 151.497ZM162.646 151.497C161.685 151.92 160.2 152.299 158.19 152.632C156.351 152.942 154.841 153.096 153.661 153.096C151.667 153.096 150.67 152.221 150.67 150.472C150.67 150.61 150.752 149.32 150.915 146.602C151.126 143.07 151.232 139.139 151.232 134.81C151.232 134.346 151.391 133.951 151.708 133.626C152.034 133.3 152.44 133.138 152.929 133.138C153.417 133.138 153.824 133.3 154.149 133.626C154.475 133.951 154.638 134.346 154.638 134.81C154.638 139.148 154.528 143.143 154.308 146.797C154.235 147.448 154.158 148.445 154.076 149.788C156.005 149.756 158.479 149.284 161.498 148.372C161.685 148.315 161.864 148.287 162.035 148.287C162.548 148.287 162.963 148.474 163.28 148.848C163.565 149.182 163.708 149.556 163.708 149.971C163.708 150.671 163.354 151.18 162.646 151.497Z" fill="#FF7236"/>
<mask id="mask0_62_781" style="mask-type:luminance" maskUnits="userSpaceOnUse" x="41" y="0" width="84" height="104">
<path d="M124.192 0H41.3848V103.565H124.192V0Z" fill="white"/>
</mask>
<g mask="url(#mask0_62_781)">
<path d="M80.0367 47.292V103.471C79.3797 103.505 78.8047 103.56 78.2287 103.56C69.2114 103.565 60.1941 103.565 51.1767 103.56C47.2217 103.56 45.3597 101.675 45.3577 97.68C45.3517 81.48 45.3707 65.2801 45.3237 49.073C45.3237 47.61 45.6957 47.1661 47.2087 47.1731C57.5757 47.2431 67.9427 47.2111 78.3087 47.2161C78.8377 47.2161 79.3667 47.2591 80.0357 47.2891" fill="#FF7236"/>
<path d="M85.723 103.318V101.411C85.727 83.9763 85.7217 66.543 85.707 49.111C85.707 47.773 86.086 47.336 87.433 47.342C97.8484 47.3866 108.264 47.39 118.679 47.352C119.836 47.352 120.289 47.659 120.286 48.904C120.25 65.367 120.271 81.83 120.25 98.293C120.25 101.344 118.315 103.427 115.401 103.44C105.849 103.483 96.301 103.456 86.745 103.45C86.4021 103.424 86.0606 103.381 85.722 103.321" fill="#FF7236"/>
<path d="M80.0528 32.2781V44.3651C79.4608 44.3941 78.9388 44.4421 78.4168 44.4421C66.6488 44.4471 54.8798 44.4241 43.1118 44.4791C41.7498 44.4851 41.3338 44.0921 41.3908 42.7541C41.4908 40.4901 41.3908 38.2191 41.4288 35.9541C41.4698 33.5441 42.7528 32.1931 45.1288 32.1881C56.4655 32.1627 67.8021 32.1627 79.1388 32.1881C79.3988 32.1881 79.6598 32.2411 80.0508 32.2881" fill="#FF7236"/>
<path d="M85.7286 32.349C86.4696 32.313 86.9946 32.264 87.5196 32.264C98.3062 32.264 109.093 32.2674 119.881 32.274C123.118 32.274 124.166 33.323 124.181 36.52C124.191 38.678 124.152 40.836 124.192 42.993C124.209 43.925 123.967 44.323 122.921 44.32C111.054 44.2834 99.1896 44.2787 87.3276 44.306C86.1916 44.306 85.6786 44.006 85.7046 42.752C85.7756 39.317 85.7295 35.88 85.7295 32.352" fill="#FF7236"/>
<path d="M75.7017 28.883C68.4627 27.157 61.2207 25.164 55.7767 19.493C51.0937 14.615 51.6007 7.50503 56.7827 2.97003C57.9272 1.91173 59.28 1.10399 60.7546 0.598504C62.2292 0.0930175 63.7931 -0.0990891 65.3462 0.0344764C66.8993 0.168042 68.4074 0.624338 69.774 1.37417C71.1406 2.124 72.3357 3.15086 73.2827 4.38903C74.6463 6.19472 75.7878 8.15781 76.6827 10.236C78.6925 15.0016 79.8615 20.0794 80.1377 25.244C78.8617 22.352 77.7827 19.351 76.2557 16.6C74.6897 13.715 72.8478 10.9886 70.7557 8.45903C68.7017 6.02703 65.9477 4.56803 62.5387 5.61403C61.6938 5.86202 60.9079 6.27862 60.2285 6.83869C59.5491 7.39877 58.9901 8.0907 58.5855 8.87273C58.1808 9.65476 57.9388 10.5107 57.8741 11.3888C57.8093 12.2669 57.9231 13.1491 58.2087 13.982C59.4087 17.677 62.1667 20.151 65.1827 22.259C68.5737 24.628 72.1827 26.689 75.6937 28.884" fill="#FF7236"/>
<path d="M91.9107 29.0301C95.4777 27.6451 98.9317 26.5581 102.135 24.9671C104.18 23.903 106.011 22.4692 107.535 20.7381C108.369 19.7957 108.843 18.5889 108.873 17.3309C108.903 16.0729 108.488 14.8446 107.701 13.8631C106.903 12.8281 105.783 12.089 104.518 11.7629C103.253 11.4369 101.915 11.5425 100.717 12.0631C96.9397 13.5441 94.4167 16.5121 91.9637 19.5411C90.8308 21.0826 89.6094 22.5571 88.3057 23.9571C88.8307 22.6911 89.2987 21.3981 89.8917 20.1641C91.9797 15.8141 94.1917 11.5281 98.4707 8.85606C99.5971 8.15654 100.859 7.70419 102.174 7.52894C103.488 7.35369 104.824 7.45953 106.095 7.83946C107.365 8.21939 108.54 8.86475 109.543 9.73284C110.545 10.6009 111.351 11.672 111.909 12.8751C114.424 18.1321 112.652 23.2681 107.384 25.9391C102.592 28.3691 97.4197 28.9121 91.9137 29.0301" fill="#FF7236"/>
<path d="M86.3777 20.137C87.1607 17.793 87.9937 15.437 88.7157 13.046C88.8384 12.4121 88.8251 11.7594 88.6767 11.131C88.6104 10.4226 88.3023 9.75851 87.8043 9.2503C87.3063 8.7421 86.6486 8.42068 85.9417 8.34C85.2439 8.20365 84.5205 8.30729 83.8891 8.63408C83.2577 8.96086 82.7553 9.49159 82.4637 10.14C81.2157 12.405 81.5637 14.855 81.7477 17.267C81.8167 18.167 82.0657 19.067 82.1477 19.978C80.7117 16.847 79.5037 13.651 80.2207 10.099C80.3654 9.42413 80.6435 8.78495 81.0385 8.21895C81.4335 7.65294 81.9375 7.1715 82.5211 6.80285C83.1046 6.4342 83.7558 6.18577 84.4366 6.07212C85.1174 5.95846 85.8141 5.98188 86.4857 6.141C87.8635 6.35587 89.1001 7.10786 89.9247 8.23237C90.7494 9.35688 91.0949 10.7623 90.8857 12.141C90.3587 15.371 88.4097 17.806 86.3787 20.135" fill="#FF7236"/>
</g>
</svg>
