<svg width="21" height="24" viewBox="0 0 21 24" fill="none" xmlns="http://www.w3.org/2000/svg">
<mask id="mask0_97_5" style="mask-type:luminance" maskUnits="userSpaceOnUse" x="0" y="0" width="21" height="24">
<path d="M20.5 0.234863H0.5V23.7639H20.5V0.234863Z" fill="white"/>
</mask>
<g mask="url(#mask0_97_5)">
<path d="M10.7812 0.234863C10.9072 0.271863 11.0352 0.302863 11.1592 0.344863C11.5532 0.478701 11.8949 0.733431 12.1356 1.07278C12.3764 1.41213 12.504 1.81879 12.5002 2.23486C12.5072 2.57186 12.5102 2.90886 12.5002 3.24586C12.4942 3.41186 12.5512 3.48086 12.7122 3.53686C13.8049 3.88145 14.7936 4.49493 15.5875 5.32102C16.3815 6.1471 16.9552 7.15934 17.2562 8.26486C17.4286 8.88485 17.5108 9.52644 17.5002 10.1699C17.5002 11.3029 17.4692 12.4389 17.5412 13.5699C17.597 14.4208 17.82 15.2523 18.1975 16.0169C18.575 16.7815 19.0996 17.4642 19.7412 18.0259C19.8412 18.1209 19.9522 18.2079 20.0522 18.3049C20.2628 18.5087 20.4073 18.7712 20.467 19.0581C20.5266 19.3451 20.4987 19.6434 20.3869 19.9143C20.275 20.1853 20.0843 20.4164 19.8396 20.5776C19.5948 20.7389 19.3073 20.823 19.0142 20.8189C17.3972 20.8309 15.7812 20.8189 14.1642 20.8189H13.9802C13.8378 21.6801 13.3802 22.4576 12.6963 23.0001C12.0124 23.5425 11.1512 23.8112 10.2802 23.7539C9.4858 23.7048 8.73136 23.3885 8.13951 22.8564C7.54765 22.3242 7.15317 21.6076 7.02019 20.8229H6.77319C5.19519 20.8229 3.61819 20.8229 2.04019 20.8229C1.79377 20.8345 1.54841 20.7836 1.32699 20.6748C1.10557 20.566 0.915311 20.4029 0.77394 20.2007C0.632569 19.9986 0.544693 19.7639 0.518508 19.5186C0.492322 19.2733 0.528679 19.0253 0.624188 18.7979C0.737357 18.5614 0.899628 18.3517 1.10019 18.1829C2.31338 17.1615 3.12776 15.7452 3.40019 14.1829C3.47053 13.753 3.50731 13.3184 3.51019 12.8829C3.52719 11.8649 3.50319 10.8459 3.52319 9.82786C3.57088 8.42742 4.04697 7.07531 4.88724 5.95394C5.7275 4.83258 6.8915 3.99592 8.22219 3.55686C8.43719 3.48686 8.51219 3.39586 8.50319 3.17486C8.48177 2.78494 8.48745 2.394 8.52019 2.00486C8.55911 1.58183 8.73604 1.18332 9.02371 0.870712C9.31137 0.558106 9.69384 0.348742 10.1122 0.274863C10.1488 0.264212 10.1846 0.250841 10.2192 0.234863L10.7812 0.234863ZM10.5062 19.8459V19.8349C11.5062 19.8349 12.5062 19.8349 13.5062 19.8349C15.2942 19.8349 17.0822 19.8389 18.8702 19.8469C18.9899 19.866 19.1127 19.8452 19.2194 19.7878C19.3262 19.7303 19.4112 19.6393 19.4612 19.5289C19.5532 19.3079 19.4892 19.1219 19.2442 18.9069C18.3613 18.1649 17.6563 17.234 17.1814 16.183C16.7064 15.1321 16.4736 13.9879 16.5002 12.8349C16.5002 11.9349 16.5052 11.0279 16.5002 10.1249C16.502 9.81852 16.4823 9.51243 16.4412 9.20886C16.3105 8.37754 16.0061 7.58309 15.5479 6.87727C15.0896 6.17146 14.4878 5.57012 13.7816 5.11244C13.0754 4.65476 12.2807 4.35102 11.4493 4.221C10.6179 4.09099 9.76838 4.13762 8.95619 4.35786C7.71232 4.67326 6.60504 5.38527 5.80194 6.38612C4.99884 7.38698 4.54362 8.62221 4.50519 9.90486C4.49119 11.0049 4.52019 12.1109 4.49319 13.2119C4.46712 14.9082 3.862 16.5447 2.77819 17.8499C2.45319 18.2499 2.06219 18.5949 1.69619 18.9599C1.61384 19.0239 1.55404 19.1125 1.52545 19.2129C1.49686 19.3132 1.50097 19.42 1.53719 19.5179C1.57406 19.6169 1.64134 19.7016 1.72937 19.76C1.8174 19.8184 1.92165 19.8474 2.02719 19.8429C2.10519 19.8429 2.18319 19.8429 2.26119 19.8429H10.5052M8.07519 20.8279C8.19441 21.3815 8.49978 21.8777 8.94041 22.2335C9.38104 22.5894 9.93031 22.7835 10.4967 22.7835C11.0631 22.7835 11.6123 22.5894 12.053 22.2335C12.4936 21.8777 12.799 21.3815 12.9182 20.8279H8.07519ZM11.4912 3.20286C11.4912 2.83786 11.5052 2.47186 11.4912 2.10286C11.4678 1.86875 11.3619 1.65058 11.1925 1.4873C11.0232 1.32402 10.8012 1.22626 10.5664 1.21148C10.3316 1.1967 10.0992 1.26586 9.91066 1.40661C9.72213 1.54736 9.58976 1.75054 9.53719 1.97986C9.50999 2.38565 9.50665 2.79268 9.52719 3.19886L11.4912 3.20286Z" fill="black"/>
</g>
</svg>
