<svg width="50" height="50" viewBox="0 0 50 50" fill="none" xmlns="http://www.w3.org/2000/svg">
<rect width="50" height="50" rx="5" fill="#FF7236"/>
<mask id="mask0_62_2293" style="mask-type:luminance" maskUnits="userSpaceOnUse" x="13" y="11" width="23" height="28">
<path d="M36.0004 11.2344H13.9873V38.7657H36.0004V11.2344Z" fill="white"/>
</mask>
<g mask="url(#mask0_62_2293)">
<path d="M24.2621 23.8066V38.7409C24.0875 38.75 23.9346 38.7646 23.7815 38.7646C21.3844 38.766 18.9872 38.766 16.5901 38.7646C15.5387 38.7646 15.0437 38.2635 15.0432 37.2015C15.0416 32.8949 15.0467 28.5884 15.0342 24.28C15.0342 23.8911 15.1331 23.7731 15.5353 23.7749C18.2912 23.7935 21.0471 23.785 23.8028 23.7864C23.9434 23.7864 24.084 23.7978 24.2619 23.8058" fill="white"/>
<path d="M25.7738 38.6998V38.1928C25.7748 33.5581 25.7734 28.9237 25.7695 24.2896C25.7695 23.9339 25.8703 23.8178 26.2284 23.8194C28.9971 23.8312 31.7659 23.8321 34.5347 23.822C34.8422 23.822 34.9627 23.9036 34.9619 24.2346C34.9523 28.611 34.9579 32.9875 34.9523 37.364C34.9523 38.175 34.4379 38.7288 33.6633 38.7322C31.124 38.7436 28.5858 38.7365 26.0455 38.7349C25.9543 38.7281 25.8635 38.7166 25.7735 38.7006" fill="white"/>
<path d="M24.2664 19.8151V23.0283C24.109 23.036 23.9703 23.0487 23.8315 23.0487C20.7031 23.0501 17.5745 23.044 14.4462 23.0586C14.0841 23.0602 13.9735 22.9557 13.9886 22.6C14.0152 21.9982 13.9886 21.3944 13.9987 20.7923C14.0096 20.1517 14.3507 19.7925 14.9823 19.7912C17.996 19.7844 21.0097 19.7844 24.0234 19.7912C24.0925 19.7912 24.1619 19.8053 24.2659 19.8178" fill="white"/>
<path d="M25.7752 19.8341C25.9722 19.8245 26.1117 19.8115 26.2513 19.8115C29.1188 19.8115 31.9863 19.8124 34.854 19.8142C35.7145 19.8142 35.9931 20.093 35.9971 20.9429C35.9998 21.5166 35.9894 22.0903 36 22.6637C36.0045 22.9114 35.9402 23.0172 35.6621 23.0164C32.5076 23.0067 29.3536 23.0055 26.2003 23.0127C25.8983 23.0127 25.7619 22.933 25.7688 22.5996C25.7877 21.6865 25.7754 20.7728 25.7754 19.8349" fill="white"/>
<path d="M23.1103 18.9128C21.1859 18.454 19.2607 17.9242 17.8135 16.4166C16.5686 15.1199 16.7034 13.2298 18.0809 12.0242C18.3852 11.7429 18.7448 11.5282 19.1368 11.3938C19.5288 11.2594 19.9445 11.2084 20.3574 11.2439C20.7703 11.2794 21.1712 11.4007 21.5345 11.6C21.8978 11.7993 22.2155 12.0723 22.4672 12.4015C22.8297 12.8815 23.1332 13.4033 23.3711 13.9558C23.9053 15.2227 24.2161 16.5725 24.2895 17.9455C23.9503 17.1767 23.6635 16.3789 23.2575 15.6476C22.8413 14.8806 22.3516 14.1559 21.7954 13.4834C21.2494 12.8369 20.5173 12.449 19.6111 12.7271C19.3865 12.793 19.1776 12.9038 18.9969 13.0527C18.8163 13.2016 18.6677 13.3855 18.5602 13.5934C18.4526 13.8013 18.3883 14.0288 18.371 14.2622C18.3538 14.4957 18.3841 14.7302 18.46 14.9516C18.779 15.9339 19.5122 16.5916 20.3139 17.1519C21.2154 17.7817 22.1748 18.3296 23.1081 18.9131" fill="white"/>
<path d="M27.4193 18.952C28.3675 18.5838 29.2857 18.2948 30.1372 17.8719C30.681 17.589 31.1677 17.2078 31.5727 16.7477C31.7944 16.4971 31.9204 16.1763 31.9284 15.8419C31.9365 15.5075 31.8261 15.181 31.6168 14.92C31.4048 14.6449 31.1071 14.4484 30.7708 14.3617C30.4344 14.2751 30.0788 14.3031 29.7602 14.4415C28.7562 14.8352 28.0855 15.6242 27.4334 16.4294C27.1322 16.8392 26.8075 17.2312 26.4609 17.6034C26.6005 17.2668 26.7249 16.9231 26.8826 16.5951C27.4376 15.4387 28.0256 14.2993 29.1632 13.589C29.4626 13.403 29.7981 13.2828 30.1475 13.2362C30.4969 13.1896 30.8522 13.2177 31.1899 13.3187C31.5276 13.4197 31.84 13.5913 32.1065 13.8221C32.3729 14.0528 32.5873 14.3376 32.7355 14.6574C33.404 16.0549 32.933 17.4202 31.5326 18.1303C30.2587 18.7762 28.8838 18.9206 27.4201 18.952" fill="white"/>
<path d="M25.9482 16.5878C26.1564 15.9647 26.3778 15.3384 26.5697 14.7028C26.6024 14.5343 26.5988 14.3608 26.5594 14.1937C26.5417 14.0054 26.4599 13.8289 26.3275 13.6938C26.1951 13.5587 26.0203 13.4732 25.8323 13.4518C25.6468 13.4155 25.4545 13.4431 25.2867 13.53C25.1188 13.6168 24.9853 13.7579 24.9077 13.9303C24.576 14.5324 24.6685 15.1837 24.7174 15.8249C24.7357 16.0641 24.8019 16.3034 24.8237 16.5456C24.442 15.7132 24.1209 14.8636 24.3115 13.9194C24.35 13.74 24.4239 13.5701 24.5289 13.4196C24.6339 13.2691 24.7679 13.1411 24.923 13.0431C25.0781 12.9451 25.2512 12.8791 25.4322 12.8489C25.6132 12.8187 25.7984 12.8249 25.9769 12.8672C26.3432 12.9243 26.6719 13.1242 26.8912 13.4232C27.1104 13.7221 27.2022 14.0957 27.1466 14.4622C27.0065 15.3209 26.4884 15.9682 25.9485 16.5873" fill="white"/>
</g>
</svg>
