<svg width="199" height="199" viewBox="0 0 199 199" fill="none" xmlns="http://www.w3.org/2000/svg">
<path d="M99.5 199C154.452 199 199 154.452 199 99.5C199 44.5477 154.452 0 99.5 0C44.5477 0 0 44.5477 0 99.5C0 154.452 44.5477 199 99.5 199Z" fill="#F5F5F5"/>
<path d="M99.5 179C143.407 179 179 143.407 179 99.5C179 55.5934 143.407 20 99.5 20C55.5934 20 20 55.5934 20 99.5C20 143.407 55.5934 179 99.5 179Z" fill="#FF7236"/>
<mask id="mask0_62_951" style="mask-type:luminance" maskUnits="userSpaceOnUse" x="56" y="45" width="88" height="89">
<path d="M143.963 45.588H56.0381V133.411H143.963V45.588Z" fill="white"/>
</mask>
<g mask="url(#mask0_62_951)">
<path d="M59.5001 133.411C58.8599 132.963 58.2428 132.483 57.6511 131.973C57.1234 131.499 56.7057 130.916 56.4271 130.263C56.1484 129.611 56.0157 128.906 56.0381 128.197C56.0851 113.897 56.0661 99.5971 56.0661 85.2971C56.0697 83.835 56.6331 82.4298 57.6405 81.3703C58.648 80.3107 60.023 79.6773 61.4831 79.6001C69.5301 79.3331 77.5831 79.5271 85.6281 79.5161C86.1481 79.5161 86.6451 79.4791 86.9671 80.0311C88.2688 82.0108 89.7678 83.8536 91.4411 85.5311H63.8601L63.6991 86.0191C65.3731 87.3191 67.0361 88.6271 68.7251 89.9041C76.7901 96.0041 84.8751 102.074 92.9171 108.204C93.0853 108.382 93.2879 108.523 93.5126 108.62C93.7374 108.717 93.9794 108.766 94.2241 108.766C94.4687 108.766 94.7108 108.717 94.9355 108.62C95.1602 108.523 95.3629 108.382 95.5311 108.204C101.006 103.987 106.546 99.8521 112.031 95.6461C112.872 94.965 113.934 94.6156 115.015 94.6641C117.677 94.7301 120.342 94.6851 123.331 94.6851C119.712 97.4511 116.331 100.031 112.954 102.617C111.729 103.555 110.54 104.542 109.284 105.436C108.559 105.952 108.341 106.318 109.155 106.968C114.555 111.283 119.946 115.612 125.328 119.956C125.585 120.163 125.835 120.502 126.209 120.256C126.553 120.035 126.395 119.633 126.396 119.314C126.428 112.279 126.453 105.243 126.471 98.2071C126.471 96.8931 126.041 95.3451 126.592 94.3311C127.152 93.3001 128.932 93.5631 130.119 93.0671C130.891 92.7441 131.704 92.5181 132.61 92.2111C132.567 103.211 132.774 114.076 132.5 124.941C132.484 125.567 132.473 126.196 132.5 126.821C132.619 128.157 132.335 129.497 131.686 130.67C131.036 131.843 130.05 132.794 128.855 133.402L59.5001 133.411ZM94.1321 127.77C103.915 127.77 113.698 127.766 123.481 127.758C123.848 127.758 124.362 128.042 124.581 127.596C124.881 126.978 124.181 126.858 123.881 126.617C117.367 121.405 110.816 116.239 104.327 110.996C104.178 110.83 103.997 110.698 103.793 110.607C103.59 110.517 103.37 110.47 103.148 110.47C102.925 110.47 102.705 110.517 102.502 110.607C102.299 110.698 102.117 110.83 101.968 110.996C100.259 112.333 98.5101 113.62 96.7501 114.889C94.3781 116.6 93.8381 116.589 91.4501 114.832C89.7031 113.544 87.9501 112.262 86.2671 110.893C86.1261 110.739 85.9536 110.617 85.7614 110.536C85.5692 110.455 85.3618 110.415 85.1531 110.421C84.9445 110.427 84.7395 110.478 84.5521 110.57C84.3648 110.661 84.1993 110.793 84.0671 110.954C77.5671 116.188 71.0291 121.366 64.5171 126.581C64.2011 126.834 63.4971 126.943 63.7171 127.526C63.9251 128.073 64.5331 127.758 64.9491 127.759C74.6751 127.776 84.4011 127.779 94.1271 127.768M61.9221 106.457C61.9221 110.747 61.9241 115.037 61.9281 119.327C61.9281 119.646 61.7841 120.047 62.1631 120.251C62.5421 120.455 62.7951 120.144 63.0551 119.935C68.4437 115.598 73.8344 111.267 79.2271 106.941C79.9351 106.375 79.8771 106.056 79.1881 105.535C73.8154 101.465 68.4551 97.3791 63.1071 93.2771C62.8411 93.0771 62.5801 92.7501 62.2151 92.8861C61.6981 93.0781 61.9371 93.5741 61.9361 93.9321C61.9201 98.1071 61.9261 102.283 61.9231 106.458" fill="white"/>
<path d="M143.963 70.238C143.011 73.059 142.224 75.938 140.442 78.415C136.286 84.183 130.487 87.261 123.701 88.78C119.556 89.6341 115.29 89.7252 111.113 89.049C110.446 88.9539 109.766 89.0557 109.157 89.342C105.236 91.009 101.305 92.651 97.3779 94.305C96.6399 94.616 95.8779 95.038 95.1539 94.365C94.3789 93.643 94.7479 92.786 95.0539 91.993C95.8709 89.877 96.6639 87.749 97.5709 85.672C97.8732 85.2056 97.9798 84.6389 97.8675 84.0945C97.7552 83.5501 97.4331 83.0718 96.9709 82.763C93.5905 80.0787 91.1725 76.37 90.0799 72.194C88.1679 63.947 90.8969 57.251 97.3079 52.003C103.529 46.911 110.848 45.236 118.735 45.648C124.875 45.8075 130.806 47.908 135.678 51.648C139.961 54.784 142.831 59.4853 143.664 64.728C143.684 64.86 143.864 64.968 143.964 65.088L143.963 70.238ZM110.663 67.658C110.697 63.465 108.113 60.664 104.177 60.625C100.096 60.585 97.3069 63.439 97.2769 67.69C97.2449 71.866 99.8639 74.69 103.785 74.701C107.951 74.715 110.632 71.971 110.667 67.658M125.431 67.838C125.431 69.721 125.481 71.606 125.41 73.487C125.373 74.467 125.71 74.687 126.658 74.741C128.084 74.828 128.833 74.518 128.536 72.918C128.444 72.418 128.583 71.885 128.509 71.382C128.336 70.193 128.763 69.711 129.987 69.876C130.499 69.9195 131.015 69.8739 131.512 69.741C134.296 69.115 135.594 67.359 135.374 64.567C135.193 62.276 133.474 60.781 130.774 60.66C129.409 60.598 128.037 60.697 126.668 60.686C125.734 60.678 125.376 61.051 125.41 62.021C125.478 63.959 125.43 65.9 125.43 67.841M115.817 68.985C115.817 70.529 115.894 72.078 115.794 73.616C115.705 74.984 116.594 74.709 117.349 74.697C118.077 74.685 118.982 75.031 118.931 73.641C118.843 71.241 118.907 68.841 118.907 66.441C118.907 63.56 118.907 63.487 121.698 63.373C122.971 63.321 122.623 62.537 122.686 61.86C122.758 61.083 122.66 60.586 121.636 60.61C118.836 60.6767 116.034 60.6767 113.231 60.61C112.144 60.582 112.031 61.081 112.063 61.95C112.094 62.735 112.014 63.499 113.176 63.35C113.401 63.32 113.64 63.384 113.86 63.341C115.597 62.999 116.02 63.809 115.843 65.396C115.768 66.5946 115.759 67.7965 115.817 68.996" fill="white"/>
<path d="M107.281 67.69C107.274 68.0875 107.247 68.4844 107.199 68.879C106.847 70.947 105.564 72.227 103.91 72.186C102.256 72.145 100.981 70.827 100.721 68.766C100.552 67.6942 100.639 66.5975 100.976 65.566C101.124 64.8903 101.497 64.2847 102.034 63.8485C102.571 63.4123 103.24 63.1714 103.932 63.1653C104.623 63.1591 105.297 63.3881 105.841 63.8146C106.386 64.2411 106.769 64.84 106.929 65.513C107.183 66.2089 107.303 66.9466 107.282 67.687" fill="white"/>
<path d="M128.513 65.053C128.766 64.364 127.821 62.9371 129.723 63.0131C131.262 63.0751 132.275 63.847 132.282 65.136C132.268 65.4628 132.189 65.7835 132.05 66.0795C131.91 66.3754 131.713 66.6406 131.47 66.8596C131.228 67.0786 130.943 67.2471 130.635 67.3551C130.326 67.4632 129.999 67.5087 129.672 67.489C128.512 67.526 128.512 67.526 128.513 65.053Z" fill="white"/>
</g>
</svg>
