<svg width="82" height="82" viewBox="0 0 82 82" fill="none" xmlns="http://www.w3.org/2000/svg">
<rect x="1" y="1" width="80" height="80" rx="5" fill="#FFF1EB"/>
<rect x="0.5" y="0.5" width="81" height="81" rx="5.5" stroke="#FF7236" stroke-dasharray="4 4"/>
<g clip-path="url(#clip0_62_1293)">
<path d="M30.5352 34.5124V33.3879H33.1064V34.4397C33.7791 34.6293 34.216 34.4698 34.6334 33.9865C35.3142 33.1967 36.0736 32.4702 36.8118 31.7279C37.3241 31.2114 37.9394 30.9871 38.7054 31.0013C40.617 31.0393 42.5303 31.0424 44.4403 31.0013C45.2324 30.984 45.8592 31.2304 46.383 31.7579C47.1751 32.5571 47.9345 33.3879 48.7414 34.1744C48.9247 34.3529 49.2422 34.4919 49.5025 34.4982C50.8707 34.5298 52.239 34.5045 53.6072 34.5156C55.0606 34.5266 55.9885 35.4127 55.9918 36.8168C56.0016 41.0512 56.0016 45.2856 55.9918 49.5185C55.9885 51.0553 54.9689 51.9998 53.3666 52.0013C45.5368 52.0013 37.7087 52.0013 29.8789 52.0013C28.054 51.9998 27 50.9795 27 49.2152C27 45.1751 27 41.1349 27 37.0963C27 35.4806 27.9771 34.5298 29.6514 34.5124C29.928 34.5092 30.2062 34.5124 30.5352 34.5124ZM41.5843 50.8342C45.4697 50.8342 49.3568 50.8342 53.2422 50.8342C54.3633 50.8342 54.784 50.4456 54.7856 49.3763C54.7905 45.2383 54.7889 41.0986 54.7856 36.9605C54.7856 36.0365 54.4239 35.6828 53.4795 35.6796C52.0098 35.6733 50.5401 35.6591 49.0704 35.6875C48.5581 35.697 48.1964 35.5422 47.8707 35.171C47.1424 34.3418 46.383 33.5363 45.6399 32.7182C45.2897 32.3328 44.8871 32.1543 44.3241 32.1654C42.4517 32.2017 40.5794 32.1575 38.707 32.197C38.347 32.2049 37.9002 32.3628 37.653 32.6029C36.8183 33.4147 36.0409 34.2834 35.2684 35.1521C34.9607 35.4995 34.6448 35.6954 34.1424 35.6859C32.653 35.6559 31.162 35.6685 29.6727 35.678C28.6498 35.6843 28.2095 36.1234 28.2095 37.1042C28.2095 41.146 28.2095 45.1877 28.2095 49.2295C28.2095 50.324 28.7349 50.831 29.8658 50.8326C33.7725 50.8326 37.6776 50.8326 41.5843 50.8326V50.8342Z" fill="#FF7236"/>
<path d="M41.5056 49.1081C37.9311 49.1112 35.0588 46.3473 35.0523 42.8978C35.0457 39.4578 37.9246 36.6686 41.4892 36.6607C45.0441 36.6528 47.9361 39.4404 47.9426 42.882C47.9491 46.3267 45.0768 49.1049 41.5056 49.1081ZM41.4614 47.9425C44.3927 47.9551 46.7331 45.7155 46.7347 42.8962C46.738 40.1022 44.4287 37.8515 41.5334 37.8263C38.6284 37.801 36.2618 40.0706 36.2601 42.8852C36.2601 45.6871 38.5662 47.9298 41.4614 47.9425Z" fill="#FF7236"/>
</g>
<defs>
<clipPath id="clip0_62_1293">
<rect width="29" height="21" fill="white" transform="translate(27 31)"/>
</clipPath>
</defs>
</svg>
