<svg width="20" height="20" viewBox="0 0 20 20" fill="none" xmlns="http://www.w3.org/2000/svg">
<path d="M7.6409 12.3496C7.51234 12.3496 7.41917 12.3496 7.32548 12.3496C5.52457 12.3496 3.72365 12.3506 1.92221 12.349C0.778677 12.348 0.00209655 11.5701 0.00209655 10.4193C0.00209655 9.9949 -0.0140388 9.56578 0.0432158 9.14762C0.158246 8.3118 0.910363 7.65796 1.75461 7.65223C3.60758 7.63971 5.46054 7.64649 7.31351 7.64545C7.40772 7.64545 7.50141 7.64545 7.63986 7.64545C7.63986 7.51823 7.63986 7.41029 7.63986 7.30184C7.63986 5.53219 7.66381 3.76254 7.63101 1.99394C7.60915 0.813996 8.52367 -0.0598795 9.6089 0.00321059C10.0482 0.0287595 10.4984 -0.01556 10.9258 0.066822C11.7835 0.232108 12.3571 0.983453 12.3592 1.86567C12.3634 3.6786 12.3602 5.49152 12.3602 7.30445C12.3602 7.40717 12.3602 7.50936 12.3602 7.64649C12.4909 7.64649 12.6007 7.64649 12.7105 7.64649C14.4943 7.64649 16.2785 7.671 18.0618 7.63711C19.1251 7.61677 20.0417 8.4724 19.9985 9.5882C19.9819 10.0116 20.023 10.4449 19.948 10.8573C19.783 11.7703 19.046 12.348 18.1242 12.3485C16.3145 12.3501 14.5047 12.3485 12.6949 12.349C12.5934 12.349 12.4914 12.349 12.3743 12.349C12.3686 12.4502 12.3602 12.5253 12.3602 12.6009C12.3602 14.4227 12.3608 16.2439 12.3602 18.0657C12.3602 19.1826 11.5602 19.9887 10.4505 19.9908C10.0612 19.9913 9.66824 20.0184 9.28255 19.9772C8.32223 19.874 7.64299 19.0913 7.64142 18.1132C7.63778 16.2831 7.64142 14.4529 7.64142 12.6228C7.64142 12.5451 7.64142 12.4679 7.64142 12.3501L7.6409 12.3496Z" fill="#219F0A"/>
</svg>
