<svg width="15" height="18" viewBox="0 0 15 18" fill="none" xmlns="http://www.w3.org/2000/svg">
<path d="M7.90635 0C8.24633 0.0480737 8.58059 0.130465 8.90403 0.245916C9.66186 0.520854 10.3264 1.00527 10.8208 1.64307C11.3152 2.28086 11.6192 3.04594 11.6975 3.84969C11.7739 4.5376 11.6852 5.23385 11.4388 5.88046C11.1924 6.52708 10.7953 7.10536 10.2808 7.56716C9.76621 8.02895 9.149 8.36091 8.48052 8.5354C7.81204 8.70988 7.11162 8.72184 6.4376 8.57028C5.76357 8.41872 5.1354 8.10803 4.60543 7.66407C4.07546 7.22011 3.65901 6.65572 3.39072 6.01789C3.12244 5.38007 3.0101 4.68726 3.06305 3.99713C3.116 3.30701 3.3327 2.63955 3.69513 2.0503C4.01786 1.50591 4.45884 1.04134 4.98528 0.691073C5.51172 0.340802 6.11013 0.113826 6.7361 0.0269908C6.776 0.0209929 6.81487 0.00899694 6.85478 0H7.90635ZM10.635 4.32953C10.635 3.46628 10.2928 2.63838 9.68359 2.02797C9.07439 1.41756 8.24811 1.07463 7.38656 1.07463C6.52502 1.07463 5.69874 1.41756 5.08953 2.02797C4.48033 2.63838 4.13813 3.46628 4.13813 4.32953C4.13813 5.19278 4.48033 6.02067 5.08953 6.63108C5.69874 7.24149 6.52502 7.58442 7.38656 7.58442C8.24811 7.58442 9.07439 7.24149 9.68359 6.63108C10.2928 6.02067 10.635 5.19278 10.635 4.32953Z" fill="black"/>
<path d="M7.50437 17.9911C5.99189 17.9911 4.47937 18.0011 2.96688 17.9911C2.27035 17.9927 1.59504 17.7509 1.05732 17.3073C0.741498 17.0531 0.484814 16.733 0.3051 16.3692C0.125385 16.0055 0.0269919 15.6068 0.0167681 15.201C-0.0493808 14.0423 0.0804951 12.8806 0.400885 11.7652C0.604723 10.9497 1.0174 10.2017 1.59812 9.59494C1.91154 9.29036 2.28266 9.05178 2.68963 8.89331C3.0966 8.73483 3.53117 8.65967 3.96761 8.67225C4.17289 8.68919 4.36926 8.76367 4.53429 8.88718C4.77373 9.03313 5.00615 9.18708 5.2426 9.34003C5.96081 9.82395 6.81298 10.0688 7.67798 10.0398C8.39275 9.99869 9.08495 9.77426 9.68826 9.38801C9.89678 9.25906 10.1103 9.13509 10.3049 8.98814C10.4984 8.84672 10.7207 8.74978 10.9559 8.70416C11.1911 8.65855 11.4335 8.6654 11.6657 8.72424C12.183 8.81327 12.6723 9.02237 13.0945 9.33482C13.5167 9.64728 13.86 10.0544 14.097 10.5236C14.5521 11.4101 14.8325 12.376 14.9231 13.3687C14.9886 13.9497 15.0124 14.5346 14.994 15.1191C14.9842 15.8296 14.7148 16.5118 14.2368 17.0367C13.7587 17.5615 13.1052 17.8926 12.4 17.9671C12.1736 17.9906 11.9461 18.0016 11.7186 18.0001H7.4964L7.50437 17.9911ZM7.51332 16.9144C8.91008 16.9144 10.3169 16.9144 11.7176 16.9144C12.0744 16.9261 12.4301 16.8701 12.7661 16.7495C13.1215 16.6133 13.4246 16.3674 13.6315 16.0474C13.8384 15.7274 13.9386 15.3498 13.9174 14.9691C13.9245 14.4076 13.8912 13.8464 13.8177 13.2897C13.7313 12.5209 13.5105 11.7734 13.1652 11.0814C13.0058 10.7368 12.7631 10.4375 12.4591 10.2106C12.1551 9.98364 11.7995 9.8363 11.4243 9.78188C11.3362 9.76297 11.2451 9.76208 11.1567 9.77925C11.0682 9.79643 10.9841 9.83133 10.9094 9.88185C10.7099 10.0248 10.5024 10.1557 10.2929 10.2817C9.61098 10.7355 8.82859 11.0151 8.01399 11.0962C7.1994 11.1772 6.37741 11.0572 5.61978 10.7465C5.08606 10.509 4.57677 10.2197 4.09926 9.88284C3.98216 9.79472 3.83732 9.75178 3.69121 9.76188C3.26913 9.79475 2.86601 9.95118 2.53192 10.2117C2.12081 10.5631 1.80942 11.0169 1.62905 11.5273C1.2008 12.7004 1.02566 13.9512 1.11523 15.197C1.13222 15.5478 1.25523 15.8851 1.46799 16.1641C1.68074 16.4432 1.97316 16.6508 2.30643 16.7595C2.63575 16.8631 2.98004 16.9108 3.32506 16.9005C4.72181 16.9055 6.11858 16.9005 7.51533 16.9005" fill="black"/>
</svg>
