<svg width="6" height="10" viewBox="0 0 6 10" fill="none" xmlns="http://www.w3.org/2000/svg">
<path d="M4.50379 5.04684L0.422378 1.227C0.326343 1.14384 0.236038 1.05519 0.151999 0.961554C0.0462049 0.849556 -0.00802293 0.703604 0.000961653 0.555044C0.00994671 0.406483 0.0814027 0.267132 0.20004 0.166772C0.313547 0.0624232 0.466196 0.00275945 0.626119 9.3944e-05C0.786043 -0.00257156 0.940891 0.0519147 1.05838 0.152414C1.42489 0.466352 1.76912 0.801735 2.12104 1.12998C3.30669 2.23579 4.49148 3.34214 5.67542 4.44901C6.10459 4.85434 6.10976 5.13893 5.68144 5.5395C4.18278 6.94044 2.68297 8.34026 1.18202 9.73907C0.823231 10.0729 0.435219 10.0849 0.162267 9.7837C-0.0883688 9.50791 -0.0454182 9.20984 0.303927 8.8824C1.51476 7.74851 2.72761 6.61676 3.94244 5.48711C4.10553 5.33372 4.29865 5.20579 4.50379 5.04684Z" fill="black"/>
</svg>
