<svg width="17" height="15" viewBox="0 0 17 15" fill="none" xmlns="http://www.w3.org/2000/svg">
<g clip-path="url(#clip0_62_4422)">
<path d="M8.87138 8.66641C8.40509 8.67755 7.95271 8.66641 7.50498 8.70428C4.74201 8.94043 2.41054 10.6581 1.3666 13.1421C1.12998 13.708 0.972225 14.3051 0.777357 14.8865C0.765757 14.9199 0.754158 14.9534 0.740239 15.0001C0.726319 14.9823 0.71704 14.9756 0.71472 14.9667C0.505932 14.2805 0.255386 13.6033 0.130113 12.8948C-0.101874 11.5715 -0.0276379 10.266 0.394578 8.98499C0.995424 7.16485 2.1136 5.71007 3.76999 4.64962C5.17119 3.75181 6.7255 3.33743 8.40973 3.37308C8.5582 3.3753 8.70667 3.37308 8.87138 3.37308C8.87138 3.33743 8.87138 3.29956 8.87138 3.26168C8.87138 2.45298 8.87138 1.6465 8.87138 0.837801C8.87138 0.719725 8.88298 0.594967 8.91546 0.481347C9.03841 0.0625148 9.45831 -0.115712 9.86428 0.0758818C9.96404 0.122666 10.0568 0.185046 10.145 0.251881C12.2909 1.89825 14.4367 3.54685 16.5826 5.19321C17.1417 5.62319 17.1394 6.30936 16.578 6.73933C14.4437 8.37902 12.3094 10.0187 10.1728 11.6562C10.0731 11.7319 9.96404 11.8054 9.84804 11.8567C9.42119 12.0438 9.00593 11.8433 8.90154 11.4044C8.87602 11.2975 8.87138 11.1839 8.87138 11.0747C8.86906 10.3217 8.87138 9.56868 8.87138 8.8179C8.87138 8.78003 8.87138 8.73992 8.87138 8.66863V8.66641ZM9.64622 7.96909V11.1059C9.69261 11.0725 9.72045 11.0546 9.74597 11.0368C11.8594 9.41273 13.9728 7.79087 16.0862 6.16678C16.2764 6.01974 16.2764 5.90612 16.0862 5.75908C15.3716 5.20881 14.6571 4.66076 13.9426 4.11049C12.5414 3.03444 11.1402 1.9584 9.73901 0.882357C9.71581 0.864535 9.68797 0.846712 9.6439 0.81775V4.13054C9.42583 4.13054 9.21472 4.13499 9.00593 4.13054C8.39813 4.11272 7.79264 4.09489 7.18715 4.17732C5.64212 4.39119 4.29196 5.0083 3.17378 6.05093C1.39212 7.71067 0.631205 9.75359 0.800555 12.124C0.805195 12.173 0.809835 12.222 0.816794 12.2688C0.823754 12.3134 0.830714 12.3579 0.842313 12.4248C0.867831 12.3802 0.879431 12.3624 0.88871 12.3423C1.37124 11.3977 2.01849 10.5734 2.83972 9.87612C3.97878 8.91147 5.29646 8.30104 6.79046 8.04484C7.47482 7.92677 8.16614 7.91563 8.85978 7.94459C9.11728 7.95573 9.37247 7.96241 9.6439 7.97132L9.64622 7.96909Z" fill="black"/>
</g>
<defs>
<clipPath id="clip0_62_4422">
<rect width="17" height="15" fill="white"/>
</clipPath>
</defs>
</svg>
