<svg width="89" height="89" viewBox="0 0 89 89" fill="none" xmlns="http://www.w3.org/2000/svg">
<path d="M44.3877 88.599C35.6853 88.599 27.1784 86.0185 19.9426 81.1837C12.7069 76.3489 7.06727 69.477 3.73702 61.4371C0.40676 53.3971 -0.464587 44.5502 1.23316 36.015C2.93091 27.4799 7.12151 19.6398 13.275 13.4863C19.4285 7.33281 27.2686 3.14222 35.8037 1.44447C44.3389 -0.253283 53.1858 0.618064 61.2258 3.94832C69.2657 7.27857 76.1376 12.9182 80.9724 20.1539C85.8072 27.3897 88.3877 35.8966 88.3877 44.599C88.3877 56.2685 83.752 67.4601 75.5004 75.7117C67.2488 83.9633 56.0572 88.599 44.3877 88.599ZM35.0577 69.321L73.0697 29.538L66.8487 23.317L35.0547 56.879L22.6077 44.433L16.3877 50.654L35.0577 69.321Z" fill="#00B700"/>
</svg>
