<svg width="17" height="17" viewBox="0 0 17 17" fill="none" xmlns="http://www.w3.org/2000/svg">
<g clip-path="url(#clip0_62_4427)">
<path d="M16.9999 9.902C16.9999 12.0887 16.9999 14.2758 16.9999 16.4626C16.9999 16.8665 16.8697 16.9992 16.4713 16.9992C12.776 16.9992 9.08026 16.9992 5.38494 16.9992C4.99331 16.9992 4.85986 16.8673 4.85986 16.4808C4.85986 12.1069 4.85986 7.73349 4.85986 3.35964C4.85986 2.96443 4.98539 2.83691 5.37662 2.83691C9.07868 2.83691 12.7807 2.83691 16.4828 2.83691C16.872 2.83691 16.9999 2.9672 16.9999 3.36083C16.9999 5.54122 16.9999 7.72121 16.9999 9.9016V9.902ZM5.67401 16.1735H16.1799V3.65228H5.67401V16.1735Z" fill="black"/>
<path d="M12.1405 2.01249H11.3442V0.828834H0.826023V12.9525H4.02756V13.7599H3.82758C2.72754 13.7599 1.6271 13.7599 0.527055 13.7599C0.127903 13.7599 0.000395984 13.6296 0.000395984 13.2233C0 8.99401 0 4.7651 0 0.535792C0 0.131473 0.129487 0 0.529035 0C4.22476 0 7.92087 0 11.6166 0C12.007 0 12.1397 0.132265 12.1405 0.519556C12.1413 1.01218 12.1405 1.50481 12.1405 2.01209V2.01249Z" fill="black"/>
<path d="M4.03446 5.26033V6.05471C3.59611 6.05471 3.16488 6.06936 2.73524 6.04798C2.53883 6.03847 2.41291 5.82661 2.43271 5.62861C2.45369 5.42229 2.60773 5.27023 2.82909 5.26389C3.15063 5.25479 3.47256 5.26073 3.7945 5.26033C3.86617 5.26033 3.93784 5.26033 4.03446 5.26033Z" fill="black"/>
<path d="M4.02902 10.9174C3.60294 10.9174 3.18438 10.9281 2.76701 10.9126C2.56665 10.9051 2.42647 10.7162 2.42924 10.5178C2.43201 10.3127 2.58486 10.1313 2.79592 10.1254C3.2018 10.1139 3.60769 10.1218 4.02862 10.1218V10.917L4.02902 10.9174Z" fill="black"/>
<path d="M4.03276 7.70406V8.49171C3.6047 8.49171 3.17981 8.50398 2.7565 8.48616C2.56603 8.47824 2.43219 8.28816 2.43021 8.09887C2.42783 7.9076 2.56049 7.71673 2.74977 7.70921C3.17347 7.69257 3.59796 7.70406 4.03315 7.70406H4.03276Z" fill="black"/>
<path d="M4.02815 3.63661C3.60643 3.63661 3.19262 3.64612 2.77961 3.63265C2.57291 3.62592 2.42243 3.42831 2.42996 3.22358C2.43748 3.0236 2.58598 2.84975 2.78872 2.84461C3.19619 2.83391 3.60405 2.84144 4.02775 2.84144V3.63661H4.02815Z" fill="black"/>
<path d="M11.1134 11.7398C9.99352 11.7398 8.87367 11.741 7.75423 11.739C7.42437 11.7386 7.2141 11.5018 7.29607 11.2285C7.34597 11.0614 7.45803 10.96 7.63226 10.9363C7.6972 10.9276 7.76373 10.9288 7.82946 10.9288C10.0296 10.9288 12.2296 10.9288 14.4293 10.9288C14.4491 10.9288 14.4689 10.9288 14.4887 10.9288C14.8004 10.9323 14.9877 11.0887 14.9817 11.3414C14.9762 11.5861 14.7909 11.7394 14.4923 11.7394C13.3661 11.7402 12.2395 11.7394 11.1134 11.7394V11.7398Z" fill="black"/>
<path d="M11.1332 6.88046C10.0003 6.88046 8.86737 6.88205 7.73446 6.87928C7.40144 6.87848 7.18206 6.60524 7.31749 6.33834C7.37372 6.22746 7.51667 6.15063 7.63507 6.08489C7.69645 6.05084 7.7899 6.07183 7.8687 6.07183C10.0423 6.07143 12.2158 6.07183 14.3894 6.07183C14.4618 6.07183 14.5347 6.07024 14.6064 6.07777C14.8329 6.10113 14.9861 6.26904 14.9814 6.48407C14.977 6.69593 14.8135 6.87056 14.5909 6.8773C14.2817 6.8864 13.972 6.88086 13.6623 6.88086C12.8193 6.88086 11.9762 6.88086 11.1332 6.88086V6.88046Z" fill="black"/>
<path d="M10.1403 8.50052C10.9307 8.50052 11.7214 8.49893 12.5118 8.50131C12.7732 8.5021 12.9569 8.67159 12.9593 8.90167C12.9617 9.13333 12.7839 9.29727 12.5182 9.30757C12.4655 9.30955 12.4128 9.30836 12.3602 9.30836C11.1152 9.30836 9.86982 9.30836 8.62485 9.30836C8.34805 9.30836 8.07166 9.30915 7.79486 9.30836C7.46382 9.30717 7.27414 9.15511 7.2789 8.8985C7.28365 8.64981 7.47332 8.50131 7.78853 8.50091C8.57258 8.50052 9.35662 8.50091 10.1403 8.50091V8.50052Z" fill="black"/>
<path d="M10.1408 13.3594C10.9379 13.3594 11.735 13.3602 12.5321 13.359C12.6992 13.359 12.8263 13.4267 12.9071 13.5705C12.9847 13.7087 12.9938 13.8667 12.8845 13.9764C12.7958 14.0651 12.6561 14.1538 12.5381 14.1546C10.9244 14.1661 9.3104 14.1637 7.69636 14.1605C7.44848 14.1601 7.27464 13.9811 7.27939 13.7546C7.28414 13.5297 7.46115 13.3614 7.71022 13.3602C8.52041 13.357 9.33059 13.359 10.1408 13.359V13.3594Z" fill="black"/>
</g>
<defs>
<clipPath id="clip0_62_4427">
<rect width="17" height="17" fill="white"/>
</clipPath>
</defs>
</svg>
